<svg xmlns="http://www.w3.org/2000/svg" xmlns:xlink="http://www.w3.org/1999/xlink" contentStyleType="text/css" height="771px" preserveAspectRatio="none" style="width:1796px;height:771px;background:#FFFFFF;" version="1.1" viewBox="0 0 1796 771" width="1796px" zoomAndPan="magnify"><defs/><g><!--class OrderMatching--><g id="elem_OrderMatching"><rect codeLine="4" fill="#F1F1F1" height="178.375" id="OrderMatching" rx="2.5" ry="2.5" style="stroke:#181818;stroke-width:0.5;" width="449.2402" x="355.5" y="404"/><ellipse cx="523.6709" cy="420" fill="#ADD1B2" rx="11" ry="11" style="stroke:#181818;stroke-width:1.0;"/><path d="M526.6396,425.6406 Q526.0615,425.9375 525.4209,426.0781 Q524.7803,426.2344 524.0771,426.2344 Q521.5771,426.2344 520.249,424.5938 Q518.9365,422.9375 518.9365,419.8125 Q518.9365,416.6875 520.249,415.0313 Q521.5771,413.375 524.0771,413.375 Q524.7803,413.375 525.4209,413.5313 Q526.0771,413.6875 526.6396,413.9844 L526.6396,416.7031 Q526.0146,416.125 525.4209,415.8594 Q524.8271,415.5781 524.2021,415.5781 Q522.8584,415.5781 522.1709,416.6563 Q521.4834,417.7188 521.4834,419.8125 Q521.4834,421.9063 522.1709,422.9844 Q522.8584,424.0469 524.2021,424.0469 Q524.8271,424.0469 525.4209,423.7813 Q526.0146,423.5 526.6396,422.9219 L526.6396,425.6406 Z " fill="#000000"/><text fill="#000000" font-family="sans-serif" font-size="14" lengthAdjust="spacing" textLength="104.3984" x="544.1709" y="424.8467">OrderMatching</text><line style="stroke:#181818;stroke-width:0.5;" x1="356.5" x2="803.7402" y1="436" y2="436"/><text fill="#000000" font-family="sans-serif" font-size="14" lengthAdjust="spacing" textLength="118.7676" x="361.5" y="452.9951">-stream_id: UUID</text><text fill="#000000" font-family="sans-serif" font-size="14" lengthAdjust="spacing" textLength="341.6943" x="361.5" y="469.292">-matching_results: List&lt;VehicleMatchingResult&gt;</text><line style="stroke:#181818;stroke-width:1.0;" x1="356.5" x2="803.7402" y1="476.5938" y2="476.5938"/><text fill="#000000" font-family="sans-serif" font-size="14" lengthAdjust="spacing" textLength="428.2783" x="361.5" y="493.5889">+executeMatchingAlgorithm(): List&lt;VehicleMatchingResult&gt;</text><text fill="#000000" font-family="sans-serif" font-size="14" lengthAdjust="spacing" textLength="306.5439" x="361.5" y="509.8857">+selectBestMatch(): VehicleMatchingResult</text><text fill="#000000" font-family="sans-serif" font-size="14" lengthAdjust="spacing" textLength="437.2402" x="361.5" y="526.1826">+assignDriver(vehicleMatchingResult: VehicleMatchingResult)</text><text fill="#000000" font-family="sans-serif" font-size="14" lengthAdjust="spacing" textLength="211.2988" x="361.5" y="542.4795">+notifyDriver(driver_id: UUID)</text><text fill="#000000" font-family="sans-serif" font-size="14" lengthAdjust="spacing" textLength="157.8076" x="361.5" y="558.7764">+notifyOrderContext()</text><text fill="#000000" font-family="sans-serif" font-size="14" lengthAdjust="spacing" textLength="224.3213" x="361.5" y="575.0732">+pushOrderToMatchedDrivers()</text></g><!--class VehicleMatchingResult--><g id="elem_VehicleMatchingResult"><rect codeLine="16" fill="#F1F1F1" height="96.8906" id="VehicleMatchingResult" rx="2.5" ry="2.5" style="stroke:#181818;stroke-width:0.5;" width="191.4072" x="34.5" y="663"/><ellipse cx="49.5" cy="679" fill="#ADD1B2" rx="11" ry="11" style="stroke:#181818;stroke-width:1.0;"/><path d="M52.4688,684.6406 Q51.8906,684.9375 51.25,685.0781 Q50.6094,685.2344 49.9063,685.2344 Q47.4063,685.2344 46.0781,683.5938 Q44.7656,681.9375 44.7656,678.8125 Q44.7656,675.6875 46.0781,674.0313 Q47.4063,672.375 49.9063,672.375 Q50.6094,672.375 51.25,672.5313 Q51.9063,672.6875 52.4688,672.9844 L52.4688,675.7031 Q51.8438,675.125 51.25,674.8594 Q50.6563,674.5781 50.0313,674.5781 Q48.6875,674.5781 48,675.6563 Q47.3125,676.7188 47.3125,678.8125 Q47.3125,680.9063 48,681.9844 Q48.6875,683.0469 50.0313,683.0469 Q50.6563,683.0469 51.25,682.7813 Q51.8438,682.5 52.4688,681.9219 L52.4688,684.6406 Z " fill="#000000"/><text fill="#000000" font-family="sans-serif" font-size="14" lengthAdjust="spacing" textLength="159.4072" x="63.5" y="683.8467">VehicleMatchingResult</text><line style="stroke:#181818;stroke-width:0.5;" x1="35.5" x2="224.9072" y1="695" y2="695"/><text fill="#000000" font-family="sans-serif" font-size="14" lengthAdjust="spacing" textLength="110.585" x="40.5" y="711.9951">-driver_id: UUID</text><text fill="#000000" font-family="sans-serif" font-size="14" lengthAdjust="spacing" textLength="119.2598" x="40.5" y="728.292">-vehicle_id: UUID</text><text fill="#000000" font-family="sans-serif" font-size="14" lengthAdjust="spacing" textLength="99.8594" x="40.5" y="744.5889">-score: double</text><line style="stroke:#181818;stroke-width:0.5;" x1="35.5" x2="224.9072" y1="751.8906" y2="751.8906"/></g><!--class MatchingCriteria--><g id="elem_MatchingCriteria"><rect codeLine="23" fill="#F1F1F1" height="162.0781" id="MatchingCriteria" rx="2.5" ry="2.5" style="stroke:#181818;stroke-width:0.5;" width="256.542" x="1289.5" y="7"/><ellipse cx="1355.4634" cy="23" fill="#ADD1B2" rx="11" ry="11" style="stroke:#181818;stroke-width:1.0;"/><path d="M1358.4321,28.6406 Q1357.854,28.9375 1357.2134,29.0781 Q1356.5728,29.2344 1355.8696,29.2344 Q1353.3696,29.2344 1352.0415,27.5938 Q1350.729,25.9375 1350.729,22.8125 Q1350.729,19.6875 1352.0415,18.0313 Q1353.3696,16.375 1355.8696,16.375 Q1356.5728,16.375 1357.2134,16.5313 Q1357.8696,16.6875 1358.4321,16.9844 L1358.4321,19.7031 Q1357.8071,19.125 1357.2134,18.8594 Q1356.6196,18.5781 1355.9946,18.5781 Q1354.6509,18.5781 1353.9634,19.6563 Q1353.2759,20.7188 1353.2759,22.8125 Q1353.2759,24.9063 1353.9634,25.9844 Q1354.6509,27.0469 1355.9946,27.0469 Q1356.6196,27.0469 1357.2134,26.7813 Q1357.8071,26.5 1358.4321,25.9219 L1358.4321,28.6406 Z " fill="#000000"/><text fill="#000000" font-family="sans-serif" font-size="14" lengthAdjust="spacing" textLength="116.1152" x="1375.9634" y="27.8467">MatchingCriteria</text><line style="stroke:#181818;stroke-width:0.5;" x1="1290.5" x2="1545.042" y1="39" y2="39"/><text fill="#000000" font-family="sans-serif" font-size="14" lengthAdjust="spacing" textLength="140.1982" x="1295.5" y="55.9951">-vehicleType: String</text><text fill="#000000" font-family="sans-serif" font-size="14" lengthAdjust="spacing" textLength="184.1943" x="1295.5" y="72.292">-currentLocation: Location</text><text fill="#000000" font-family="sans-serif" font-size="14" lengthAdjust="spacing" textLength="232.7158" x="1295.5" y="88.5889">-predictedNextLocation: Location</text><text fill="#000000" font-family="sans-serif" font-size="14" lengthAdjust="spacing" textLength="244.542" x="1295.5" y="104.8857">-driverWorkingHours: TimeWindow</text><text fill="#000000" font-family="sans-serif" font-size="14" lengthAdjust="spacing" textLength="91.5742" x="1295.5" y="121.1826">-capacity: int</text><text fill="#000000" font-family="sans-serif" font-size="14" lengthAdjust="spacing" textLength="123.3818" x="1295.5" y="137.4795">-deliveryTime: int</text><line style="stroke:#181818;stroke-width:1.0;" x1="1290.5" x2="1545.042" y1="144.7813" y2="144.7813"/><text fill="#000000" font-family="sans-serif" font-size="14" lengthAdjust="spacing" textLength="217.6152" x="1295.5" y="161.7764">+matches(vehicle_id): boolean</text></g><!--class Location--><g id="elem_Location"><rect codeLine="34" fill="#F1F1F1" height="96.8906" id="Location" rx="2.5" ry="2.5" style="stroke:#181818;stroke-width:0.5;" width="273.8984" x="1115" y="246"/><ellipse cx="1217.9697" cy="262" fill="#ADD1B2" rx="11" ry="11" style="stroke:#181818;stroke-width:1.0;"/><path d="M1220.9385,267.6406 Q1220.3604,267.9375 1219.7197,268.0781 Q1219.0791,268.2344 1218.376,268.2344 Q1215.876,268.2344 1214.5479,266.5938 Q1213.2354,264.9375 1213.2354,261.8125 Q1213.2354,258.6875 1214.5479,257.0313 Q1215.876,255.375 1218.376,255.375 Q1219.0791,255.375 1219.7197,255.5313 Q1220.376,255.6875 1220.9385,255.9844 L1220.9385,258.7031 Q1220.3135,258.125 1219.7197,257.8594 Q1219.126,257.5781 1218.501,257.5781 Q1217.1572,257.5781 1216.4697,258.6563 Q1215.7822,259.7188 1215.7822,261.8125 Q1215.7822,263.9063 1216.4697,264.9844 Q1217.1572,266.0469 1218.501,266.0469 Q1219.126,266.0469 1219.7197,265.7813 Q1220.3135,265.5 1220.9385,264.9219 L1220.9385,267.6406 Z " fill="#000000"/><text fill="#000000" font-family="sans-serif" font-size="14" lengthAdjust="spacing" textLength="59.459" x="1238.4697" y="266.8467">Location</text><line style="stroke:#181818;stroke-width:0.5;" x1="1116" x2="1387.8984" y1="278" y2="278"/><text fill="#000000" font-family="sans-serif" font-size="14" lengthAdjust="spacing" textLength="115.6436" x="1121" y="294.9951">-latitude: double</text><text fill="#000000" font-family="sans-serif" font-size="14" lengthAdjust="spacing" textLength="127.9004" x="1121" y="311.292">-longitude: double</text><line style="stroke:#181818;stroke-width:1.0;" x1="1116" x2="1387.8984" y1="318.5938" y2="318.5938"/><text fill="#000000" font-family="sans-serif" font-size="14" lengthAdjust="spacing" textLength="261.8984" x="1121" y="335.5889">+distanceTo(other: Location): double</text></g><!--class TimeWindow--><g id="elem_TimeWindow"><rect codeLine="41" fill="#F1F1F1" height="80.5938" id="TimeWindow" rx="2.5" ry="2.5" style="stroke:#181818;stroke-width:0.5;" width="161.6729" x="1550" y="254"/><ellipse cx="1582.7627" cy="270" fill="#ADD1B2" rx="11" ry="11" style="stroke:#181818;stroke-width:1.0;"/><path d="M1585.7314,275.6406 Q1585.1533,275.9375 1584.5127,276.0781 Q1583.8721,276.2344 1583.1689,276.2344 Q1580.6689,276.2344 1579.3408,274.5938 Q1578.0283,272.9375 1578.0283,269.8125 Q1578.0283,266.6875 1579.3408,265.0313 Q1580.6689,263.375 1583.1689,263.375 Q1583.8721,263.375 1584.5127,263.5313 Q1585.1689,263.6875 1585.7314,263.9844 L1585.7314,266.7031 Q1585.1064,266.125 1584.5127,265.8594 Q1583.9189,265.5781 1583.2939,265.5781 Q1581.9502,265.5781 1581.2627,266.6563 Q1580.5752,267.7188 1580.5752,269.8125 Q1580.5752,271.9063 1581.2627,272.9844 Q1581.9502,274.0469 1583.2939,274.0469 Q1583.9189,274.0469 1584.5127,273.7813 Q1585.1064,273.5 1585.7314,272.9219 L1585.7314,275.6406 Z " fill="#000000"/><text fill="#000000" font-family="sans-serif" font-size="14" lengthAdjust="spacing" textLength="90.2002" x="1600.71" y="274.8467">TimeWindow</text><line style="stroke:#181818;stroke-width:0.5;" x1="1551" x2="1710.6729" y1="286" y2="286"/><text fill="#000000" font-family="sans-serif" font-size="14" lengthAdjust="spacing" textLength="149.6729" x="1556" y="302.9951">-startTime: DateTime</text><text fill="#000000" font-family="sans-serif" font-size="14" lengthAdjust="spacing" textLength="143.4385" x="1556" y="319.292">-endTime: DateTime</text><line style="stroke:#181818;stroke-width:0.5;" x1="1551" x2="1710.6729" y1="326.5938" y2="326.5938"/></g><!--class MatchingAlgorithmService--><g id="elem_MatchingAlgorithmService"><rect codeLine="47" fill="#F1F1F1" height="64.2969" id="MatchingAlgorithmService" rx="2.5" ry="2.5" style="stroke:#181818;stroke-width:0.5;" width="593.998" x="7" y="262.5"/><ellipse cx="207.4126" cy="278.5" fill="#B4A7E5" rx="11" ry="11" style="stroke:#181818;stroke-width:1.0;"/><path d="M203.3345,274.2656 L203.3345,272.1094 L210.7251,272.1094 L210.7251,274.2656 L208.2563,274.2656 L208.2563,282.3438 L210.7251,282.3438 L210.7251,284.5 L203.3345,284.5 L203.3345,282.3438 L205.8032,282.3438 L205.8032,274.2656 L203.3345,274.2656 Z " fill="#000000"/><text fill="#000000" font-family="sans-serif" font-size="14" font-style="italic" lengthAdjust="spacing" textLength="184.6729" x="227.9126" y="283.3467">MatchingAlgorithmService</text><line style="stroke:#181818;stroke-width:0.5;" x1="8" x2="599.998" y1="294.5" y2="294.5"/><line style="stroke:#181818;stroke-width:0.5;" x1="8" x2="599.998" y1="302.5" y2="302.5"/><text fill="#000000" font-family="sans-serif" font-size="14" lengthAdjust="spacing" textLength="581.998" x="13" y="319.4951">+predictMatchedVehicles(criteria: MatchingCriteria): List&lt;VehicleMatchingResult&gt;</text></g><!--class NotificationService--><g id="elem_NotificationService"><rect codeLine="51" fill="#F1F1F1" height="96.8906" id="NotificationService" rx="2.5" ry="2.5" style="stroke:#181818;stroke-width:0.5;" width="443.6621" x="636" y="246"/><ellipse cx="787.5459" cy="262" fill="#B4A7E5" rx="11" ry="11" style="stroke:#181818;stroke-width:1.0;"/><path d="M783.4678,257.7656 L783.4678,255.6094 L790.8584,255.6094 L790.8584,257.7656 L788.3896,257.7656 L788.3896,265.8438 L790.8584,265.8438 L790.8584,268 L783.4678,268 L783.4678,265.8438 L785.9365,265.8438 L785.9365,257.7656 L783.4678,257.7656 Z " fill="#000000"/><text fill="#000000" font-family="sans-serif" font-size="14" font-style="italic" lengthAdjust="spacing" textLength="132.0703" x="808.0459" y="266.8467">NotificationService</text><line style="stroke:#181818;stroke-width:0.5;" x1="637" x2="1078.6621" y1="278" y2="278"/><line style="stroke:#181818;stroke-width:0.5;" x1="637" x2="1078.6621" y1="286" y2="286"/><text fill="#000000" font-family="sans-serif" font-size="14" lengthAdjust="spacing" textLength="327.3047" x="642" y="302.9951">+notifyDriver(driverId: UUID, message: String)</text><text fill="#000000" font-family="sans-serif" font-size="14" lengthAdjust="spacing" textLength="360.6436" x="642" y="319.292">+notifyOrderContext(orderId: UUID, driverId: UUID)</text><text fill="#000000" font-family="sans-serif" font-size="14" lengthAdjust="spacing" textLength="431.6621" x="642" y="335.5889">+pushOrderToMatchedDrivers(List&lt;VehicleMatchingResult&gt;)</text></g><!--class OrderMatchingApplicationService--><g id="elem_OrderMatchingApplicationService"><rect codeLine="58" fill="#F1F1F1" height="113.1875" id="OrderMatchingApplicationService" rx="2.5" ry="2.5" style="stroke:#181818;stroke-width:0.5;" width="397.123" x="383.5" y="31.5"/><ellipse cx="460.6299" cy="47.5" fill="#ADD1B2" rx="11" ry="11" style="stroke:#181818;stroke-width:1.0;"/><path d="M463.5986,53.1406 Q463.0205,53.4375 462.3799,53.5781 Q461.7393,53.7344 461.0361,53.7344 Q458.5361,53.7344 457.208,52.0938 Q455.8955,50.4375 455.8955,47.3125 Q455.8955,44.1875 457.208,42.5313 Q458.5361,40.875 461.0361,40.875 Q461.7393,40.875 462.3799,41.0313 Q463.0361,41.1875 463.5986,41.4844 L463.5986,44.2031 Q462.9736,43.625 462.3799,43.3594 Q461.7861,43.0781 461.1611,43.0781 Q459.8174,43.0781 459.1299,44.1563 Q458.4424,45.2188 458.4424,47.3125 Q458.4424,49.4063 459.1299,50.4844 Q459.8174,51.5469 461.1611,51.5469 Q461.7861,51.5469 462.3799,51.2813 Q462.9736,51 463.5986,50.4219 L463.5986,53.1406 Z " fill="#000000"/><text fill="#000000" font-family="sans-serif" font-size="14" lengthAdjust="spacing" textLength="234.3633" x="481.1299" y="52.3467">OrderMatchingApplicationService</text><line style="stroke:#181818;stroke-width:0.5;" x1="384.5" x2="779.623" y1="63.5" y2="63.5"/><text fill="#000000" font-family="sans-serif" font-size="14" lengthAdjust="spacing" textLength="385.123" x="389.5" y="80.4951">-matchingAlgorithmService: MatchingAlgorithmService</text><text fill="#000000" font-family="sans-serif" font-size="14" lengthAdjust="spacing" textLength="276.7598" x="389.5" y="96.792">-notificationService: NotificationService</text><line style="stroke:#181818;stroke-width:1.0;" x1="384.5" x2="779.623" y1="104.0938" y2="104.0938"/><text fill="#000000" font-family="sans-serif" font-size="14" lengthAdjust="spacing" textLength="275.2148" x="389.5" y="121.0889">+startMatchingProcess(order_id: UUID)</text><text fill="#000000" font-family="sans-serif" font-size="14" lengthAdjust="spacing" textLength="213.7256" x="389.5" y="137.3857">+driverAccept(order_id: UUID)</text></g><!--class OrderMatchingCompleted--><g id="elem_OrderMatchingCompleted"><rect codeLine="68" fill="#F1F1F1" height="88.8594" id="OrderMatchingCompleted" rx="2.5" ry="2.5" style="stroke:#181818;stroke-width:0.5;" width="357.3447" x="260.5" y="667"/><ellipse cx="344.5444" cy="687.1328" fill="#ADD1B2" rx="11" ry="11" style="stroke:#181818;stroke-width:1.0;"/><path d="M347.5132,692.7734 Q346.9351,693.0703 346.2944,693.2109 Q345.6538,693.3672 344.9507,693.3672 Q342.4507,693.3672 341.1226,691.7266 Q339.8101,690.0703 339.8101,686.9453 Q339.8101,683.8203 341.1226,682.1641 Q342.4507,680.5078 344.9507,680.5078 Q345.6538,680.5078 346.2944,680.6641 Q346.9507,680.8203 347.5132,681.1172 L347.5132,683.8359 Q346.8882,683.2578 346.2944,682.9922 Q345.7007,682.7109 345.0757,682.7109 Q343.7319,682.7109 343.0444,683.7891 Q342.3569,684.8516 342.3569,686.9453 Q342.3569,689.0391 343.0444,690.1172 Q343.7319,691.1797 345.0757,691.1797 Q345.7007,691.1797 346.2944,690.9141 Q346.8882,690.6328 347.5132,690.0547 L347.5132,692.7734 Z " fill="#000000"/><text fill="#000000" font-family="sans-serif" font-size="12" font-style="italic" lengthAdjust="spacing" textLength="49.1895" x="430.8276" y="683.1387">&#171;Event&#187;</text><text fill="#000000" font-family="sans-serif" font-size="14" lengthAdjust="spacing" textLength="180.7559" x="365.0444" y="698.9639">OrderMatchingCompleted</text><line style="stroke:#181818;stroke-width:0.5;" x1="261.5" x2="616.8447" y1="707.2656" y2="707.2656"/><text fill="#000000" font-family="sans-serif" font-size="14" lengthAdjust="spacing" textLength="125.4463" x="266.5" y="724.2607">+stream_id: UUID</text><text fill="#000000" font-family="sans-serif" font-size="14" lengthAdjust="spacing" textLength="345.3447" x="266.5" y="740.5576">+matchingResults: List&lt;VehicleMatchingResult&gt;</text><line style="stroke:#181818;stroke-width:0.5;" x1="261.5" x2="616.8447" y1="747.8594" y2="747.8594"/></g><!--class DriverAssigned--><g id="elem_DriverAssigned"><rect codeLine="73" fill="#F1F1F1" height="105.1563" id="DriverAssigned" rx="2.5" ry="2.5" style="stroke:#181818;stroke-width:0.5;" width="138.3945" x="653" y="659"/><ellipse cx="668" cy="679.1328" fill="#ADD1B2" rx="11" ry="11" style="stroke:#181818;stroke-width:1.0;"/><path d="M670.9688,684.7734 Q670.3906,685.0703 669.75,685.2109 Q669.1094,685.3672 668.4063,685.3672 Q665.9063,685.3672 664.5781,683.7266 Q663.2656,682.0703 663.2656,678.9453 Q663.2656,675.8203 664.5781,674.1641 Q665.9063,672.5078 668.4063,672.5078 Q669.1094,672.5078 669.75,672.6641 Q670.4063,672.8203 670.9688,673.1172 L670.9688,675.8359 Q670.3438,675.2578 669.75,674.9922 Q669.1563,674.7109 668.5313,674.7109 Q667.1875,674.7109 666.5,675.7891 Q665.8125,676.8516 665.8125,678.9453 Q665.8125,681.0391 666.5,682.1172 Q667.1875,683.1797 668.5313,683.1797 Q669.1563,683.1797 669.75,682.9141 Q670.3438,682.6328 670.9688,682.0547 L670.9688,684.7734 Z " fill="#000000"/><text fill="#000000" font-family="sans-serif" font-size="12" font-style="italic" lengthAdjust="spacing" textLength="49.1895" x="710.6025" y="675.1387">&#171;Event&#187;</text><text fill="#000000" font-family="sans-serif" font-size="14" lengthAdjust="spacing" textLength="106.3945" x="682" y="690.9639">DriverAssigned</text><line style="stroke:#181818;stroke-width:0.5;" x1="654" x2="790.3945" y1="699.2656" y2="699.2656"/><text fill="#000000" font-family="sans-serif" font-size="14" lengthAdjust="spacing" textLength="125.4463" x="659" y="716.2607">+stream_id: UUID</text><text fill="#000000" font-family="sans-serif" font-size="14" lengthAdjust="spacing" textLength="117.2637" x="659" y="732.5576">+driver_id: UUID</text><text fill="#000000" font-family="sans-serif" font-size="14" lengthAdjust="spacing" textLength="125.9385" x="659" y="748.8545">+vehicle_id: UUID</text><line style="stroke:#181818;stroke-width:0.5;" x1="654" x2="790.3945" y1="756.1563" y2="756.1563"/></g><!--class MatchingStatus--><g id="elem_MatchingStatus"><rect fill="#F1F1F1" height="48" id="MatchingStatus" rx="2.5" ry="2.5" style="stroke:#181818;stroke-width:0.5;" width="140.9785" x="826.5" y="687.5"/><ellipse cx="841.5" cy="703.5" fill="#ADD1B2" rx="11" ry="11" style="stroke:#181818;stroke-width:1.0;"/><path d="M844.4688,709.1406 Q843.8906,709.4375 843.25,709.5781 Q842.6094,709.7344 841.9063,709.7344 Q839.4063,709.7344 838.0781,708.0938 Q836.7656,706.4375 836.7656,703.3125 Q836.7656,700.1875 838.0781,698.5313 Q839.4063,696.875 841.9063,696.875 Q842.6094,696.875 843.25,697.0313 Q843.9063,697.1875 844.4688,697.4844 L844.4688,700.2031 Q843.8438,699.625 843.25,699.3594 Q842.6563,699.0781 842.0313,699.0781 Q840.6875,699.0781 840,700.1563 Q839.3125,701.2188 839.3125,703.3125 Q839.3125,705.4063 840,706.4844 Q840.6875,707.5469 842.0313,707.5469 Q842.6563,707.5469 843.25,707.2813 Q843.8438,707 844.4688,706.4219 L844.4688,709.1406 Z " fill="#000000"/><text fill="#000000" font-family="sans-serif" font-size="14" lengthAdjust="spacing" textLength="108.9785" x="855.5" y="708.3467">MatchingStatus</text><line style="stroke:#181818;stroke-width:0.5;" x1="827.5" x2="966.4785" y1="719.5" y2="719.5"/><line style="stroke:#181818;stroke-width:0.5;" x1="827.5" x2="966.4785" y1="727.5" y2="727.5"/></g><!--reverse link OrderMatching to VehicleMatchingResult--><g id="link_OrderMatching_VehicleMatchingResult"><path codeLine="80" d="M386.1561,587.2618 C327.3861,615.5318 275.48,640.51 225.61,664.5 " fill="none" id="OrderMatching-backto-VehicleMatchingResult" style="stroke:#181818;stroke-width:1.0;"/><polygon fill="none" points="396.97,582.06,389.8291,581.0563,386.1561,587.2618,393.297,588.2655,396.97,582.06" style="stroke:#181818;stroke-width:1.0;"/><text fill="#000000" font-family="sans-serif" font-size="13" lengthAdjust="spacing" textLength="108.7417" x="330" y="625.0669">matchingResults</text></g><!--reverse link OrderMatching to MatchingStatus--><g id="link_OrderMatching_MatchingStatus"><path codeLine="81" d="M718.8495,588.8278 C774.8995,627.1078 826.15,662.11 863.04,687.31 " fill="none" id="OrderMatching-backto-MatchingStatus" style="stroke:#181818;stroke-width:1.0;"/><polygon fill="#181818" points="708.94,582.06,711.6388,588.747,718.8495,588.8278,716.1507,582.1407,708.94,582.06" style="stroke:#181818;stroke-width:1.0;"/></g><!--reverse link MatchingCriteria to Location--><g id="link_MatchingCriteria_Location"><path codeLine="83" d="M1278.2358,121.6947 C1234.9758,138.0547 1202.49,159.34 1177,199 C1166.81,214.86 1173.05,231.24 1185.43,245.83 " fill="none" id="MatchingCriteria-backto-Location" style="stroke:#181818;stroke-width:1.0;"/><polygon fill="#181818" points="1289.46,117.45,1282.433,115.831,1278.2358,121.6947,1285.2628,123.3138,1289.46,117.45" style="stroke:#181818;stroke-width:1.0;"/><text fill="#000000" font-family="sans-serif" font-size="13" lengthAdjust="spacing" textLength="102.6226" x="1178" y="212.0669">currentLocation</text></g><!--reverse link MatchingCriteria to Location--><g id="link_MatchingCriteria_Location"><path codeLine="84" d="M1338.0796,178.1888 C1329.5596,188.1488 1328.89,189.17 1321,199 C1309.04,213.89 1296.56,230.58 1285.56,245.75 " fill="none" id="MatchingCriteria-backto-Location-1" style="stroke:#181818;stroke-width:1.0;"/><polygon fill="#181818" points="1345.88,169.07,1338.9402,171.0293,1338.0796,178.1888,1345.0194,176.2296,1345.88,169.07" style="stroke:#181818;stroke-width:1.0;"/><text fill="#000000" font-family="sans-serif" font-size="13" lengthAdjust="spacing" textLength="147.6782" x="1322" y="212.0669">predictedNextLocation</text></g><!--reverse link MatchingCriteria to TimeWindow--><g id="link_MatchingCriteria_TimeWindow"><path codeLine="85" d="M1476.3766,178.9251 C1488.6866,195.3151 1495.35,202.17 1510,216 C1524.69,229.87 1542.2,242.73 1559.27,253.82 " fill="none" id="MatchingCriteria-backto-TimeWindow" style="stroke:#181818;stroke-width:1.0;"/><polygon fill="#181818" points="1469.17,169.33,1469.5749,176.5297,1476.3766,178.9251,1475.9716,171.7254,1469.17,169.33" style="stroke:#181818;stroke-width:1.0;"/><text fill="#000000" font-family="sans-serif" font-size="13" lengthAdjust="spacing" textLength="130.1143" x="1511" y="212.0669">driverWorkingHours</text></g><!--reverse link MatchingCriteria to TimeWindow--><g id="link_MatchingCriteria_TimeWindow"><path codeLine="86" d="M1557.6993,126.6581 C1596.3293,143.2181 1623.39,162.99 1646,199 C1656.16,215.18 1654.16,235.89 1648.88,253.8 " fill="none" id="MatchingCriteria-backto-TimeWindow-1" style="stroke:#181818;stroke-width:1.0;"/><polygon fill="#181818" points="1546.67,121.93,1550.6086,127.9705,1557.6993,126.6581,1553.7607,120.6176,1546.67,121.93" style="stroke:#181818;stroke-width:1.0;"/><text fill="#000000" font-family="sans-serif" font-size="13" lengthAdjust="spacing" textLength="135.9604" x="1653" y="212.0669">deliveryTimeWindow</text></g><!--link OrderMatchingApplicationService to MatchingAlgorithmService--><g id="link_OrderMatchingApplicationService_MatchingAlgorithmService"><path codeLine="89" d="M506.4,144.61 C454.95,182.46 393.583,227.6045 351.173,258.8045 " fill="none" id="OrderMatchingApplicationService-to-MatchingAlgorithmService" style="stroke:#181818;stroke-width:1.0;stroke-dasharray:7.0,7.0;"/><polygon fill="#181818" points="346.34,262.36,355.9599,260.2487,350.3675,259.3971,351.2192,253.8047,346.34,262.36" style="stroke:#181818;stroke-width:1.0;"/></g><!--link OrderMatchingApplicationService to NotificationService--><g id="link_OrderMatchingApplicationService_NotificationService"><path codeLine="90" d="M657.05,144.61 C699.83,176.31 748.0691,212.048 788.9091,242.308 " fill="none" id="OrderMatchingApplicationService-to-NotificationService" style="stroke:#181818;stroke-width:1.0;stroke-dasharray:7.0,7.0;"/><polygon fill="#181818" points="793.73,245.88,788.88,237.3081,789.7126,242.9033,784.1174,243.7359,793.73,245.88" style="stroke:#181818;stroke-width:1.0;"/></g><!--link MatchingAlgorithmService to OrderMatching--><g id="link_MatchingAlgorithmService_OrderMatching"><path codeLine="92" d="M347.73,326.64 C377.15,347.58 412.6119,372.8306 451.4419,400.4706 " fill="none" id="MatchingAlgorithmService-to-OrderMatching" style="stroke:#181818;stroke-width:1.0;stroke-dasharray:7.0,7.0;"/><polygon fill="#181818" points="456.33,403.95,451.3175,395.4721,452.2566,401.0505,446.6782,401.9896,456.33,403.95" style="stroke:#181818;stroke-width:1.0;"/></g><!--link NotificationService to OrderMatching--><g id="link_NotificationService_OrderMatching"><path codeLine="93" d="M790.7,343.07 C764.75,361.41 739.11,379.5373 709.45,400.4973 " fill="none" id="NotificationService-to-OrderMatching" style="stroke:#181818;stroke-width:1.0;stroke-dasharray:7.0,7.0;"/><polygon fill="#181818" points="704.55,403.96,714.2084,402.0326,708.6333,401.0744,709.5915,395.4993,704.55,403.96" style="stroke:#181818;stroke-width:1.0;"/></g><!--link OrderMatching to OrderMatchingCompleted--><g id="link_OrderMatching_OrderMatchingCompleted"><path codeLine="96" d="M522.65,582.06 C503.67,611.21 486.6341,637.3521 470.7841,661.6921 " fill="none" id="OrderMatching-to-OrderMatchingCompleted" style="stroke:#181818;stroke-width:1.0;stroke-dasharray:7.0,7.0;"/><polygon fill="#181818" points="467.51,666.72,475.7732,661.3609,470.2385,662.5301,469.0693,656.9954,467.51,666.72" style="stroke:#181818;stroke-width:1.0;"/><text fill="#000000" font-family="sans-serif" font-size="13" lengthAdjust="spacing" textLength="36.1436" x="503" y="625.0669">emits</text></g><!--link OrderMatching to DriverAssigned--><g id="link_OrderMatching_DriverAssigned"><path codeLine="97" d="M637.76,582.06 C654.88,608.17 669.7782,630.8836 684.8582,653.8636 " fill="none" id="OrderMatching-to-DriverAssigned" style="stroke:#181818;stroke-width:1.0;stroke-dasharray:7.0,7.0;"/><polygon fill="#181818" points="688.15,658.88,686.5565,649.1609,685.4068,654.6997,679.868,653.55,688.15,658.88" style="stroke:#181818;stroke-width:1.0;"/><text fill="#000000" font-family="sans-serif" font-size="13" lengthAdjust="spacing" textLength="36.1436" x="669" y="625.0669">emits</text></g><!--SRC=[bLPHRzem47xFh_1ROOngpr65H4kb8NNj1BHzh8np3TuIEx8lh6pQVv_Zs0b9JEbuIM9_T-Ux- -up-YSN1LKq9ooZMiyH5T-M24icnPh_1l8bYYx8hK2E73IX8Y7pD5MGKWGTMHloe19GtoYo7HSf-HCHyviIZGfe_iAJc3m-BXTkDNUm5mMwp537v8vhl7g27MSPU2ShkpchRQRsCI7m1ioSp6FcMIeLnrq-6fztCY4QCc1u3HhjVcKKn3kuoOkdOg7u7jHe7mAUi1yx1q8YVpqu1ubzDBNeOcpvRgH0UCEHtofAlRCR6sdzGrAxqWRnDtA53nwWQK0lg5jrkVINDPCAOfB8Sfj15U62FD6i1FAm_M7gvbljGzsOoeFYj0dct6uEXV6oDYGIgTjXfL8Wy4uoYbmAqoltvlOB1Gbd2CczoVyagaxcMIh3r_IhB9LXpeRdyCn58d_vKBIWZECX9boWDuIiiZnKuADrJohBHz2ZjYo665ifCw2YBRG_J9DkPZwnJDgAkMKfqi2w3vOObbB1O2D74dUWsYp7nwMlOxRP7OqKLLWdiZ3pLxsv7H19RzssS25poWLPWzfpPkRLf0_gbJ8WWobo61ThujlYoEUOfaVCDJuUKE7C59hpjD7lA-BpElL-uC3WB1rNFvCSjAPfGx5t1abM7wrXrz7vANidbN5TstbHP2w5ji01GJp2TLDjnR3VXFXaUvoX6DOl3XMrIpzB7-_vkvBcmBgkqq2PwdBD6OC21n2JVikjsxqPxc3YDp8lCZ23JQwkB6esQveSkXmcJJrM7xaRca6fMpQtWlqVmKBoE1dAe-tr2Z9RLhtZXOwwzvsSJay8STnFg6VvoLZwZpLIB7KK3GIs0ZNo4_VLz2m-gAvXgoF1YGDw-n6Z8wrrmXn5vuRXyd9sckuVCGxnFZgfRvL5nsiK4gCXgleNL5EzsyG1igLzJ23dGOCUPHtm7m00]--></g></svg>