<svg xmlns="http://www.w3.org/2000/svg" xmlns:xlink="http://www.w3.org/1999/xlink" contentStyleType="text/css" height="901px" preserveAspectRatio="none" style="width:2289px;height:901px;background:#FFFFFF;" version="1.1" viewBox="0 0 2289 901" width="2289px" zoomAndPan="magnify"><defs/><g><!--class Assignment--><g id="elem_Assignment"><rect codeLine="4" fill="#F1F1F1" height="243.5625" id="Assignment" rx="2.5" ry="2.5" style="stroke:#181818;stroke-width:0.5;" width="441.7344" x="384.5" y="428"/><ellipse cx="559.9033" cy="444" fill="#ADD1B2" rx="11" ry="11" style="stroke:#181818;stroke-width:1.0;"/><path d="M562.8721,449.6406 Q562.2939,449.9375 561.6533,450.0781 Q561.0127,450.2344 560.3096,450.2344 Q557.8096,450.2344 556.4814,448.5938 Q555.1689,446.9375 555.1689,443.8125 Q555.1689,440.6875 556.4814,439.0313 Q557.8096,437.375 560.3096,437.375 Q561.0127,437.375 561.6533,437.5313 Q562.3096,437.6875 562.8721,437.9844 L562.8721,440.7031 Q562.2471,440.125 561.6533,439.8594 Q561.0596,439.5781 560.4346,439.5781 Q559.0908,439.5781 558.4033,440.6563 Q557.7158,441.7188 557.7158,443.8125 Q557.7158,445.9063 558.4033,446.9844 Q559.0908,448.0469 560.4346,448.0469 Q561.0596,448.0469 561.6533,447.7813 Q562.2471,447.5 562.8721,446.9219 L562.8721,449.6406 Z " fill="#000000"/><text fill="#000000" font-family="sans-serif" font-size="14" lengthAdjust="spacing" textLength="82.4277" x="580.4033" y="448.8467">Assignment</text><line style="stroke:#181818;stroke-width:0.5;" x1="385.5" x2="825.2344" y1="460" y2="460"/><text fill="#000000" font-family="sans-serif" font-size="14" lengthAdjust="spacing" textLength="144.0674" x="390.5" y="476.9951">-assignmentId: UUID</text><text fill="#000000" font-family="sans-serif" font-size="14" lengthAdjust="spacing" textLength="100.2148" x="390.5" y="493.292">-orderId: UUID</text><text fill="#000000" font-family="sans-serif" font-size="14" lengthAdjust="spacing" textLength="103.8242" x="390.5" y="509.5889">-driverId: UUID</text><text fill="#000000" font-family="sans-serif" font-size="14" lengthAdjust="spacing" textLength="112.499" x="390.5" y="525.8857">-vehicleId: UUID</text><text fill="#000000" font-family="sans-serif" font-size="14" lengthAdjust="spacing" textLength="184.2764" x="390.5" y="542.1826">-status: AssignmentStatus</text><text fill="#000000" font-family="sans-serif" font-size="14" lengthAdjust="spacing" textLength="198.4951" x="390.5" y="558.4795">-assignmentTime: DateTime</text><text fill="#000000" font-family="sans-serif" font-size="14" lengthAdjust="spacing" textLength="233.29" x="390.5" y="574.7764">-estimatedArrivalTime: DateTime</text><line style="stroke:#181818;stroke-width:1.0;" x1="385.5" x2="825.2344" y1="582.0781" y2="582.0781"/><text fill="#000000" font-family="sans-serif" font-size="14" lengthAdjust="spacing" textLength="429.7344" x="390.5" y="599.0732">+assignDriver(orderId: UUID, driverId: UUID, vehicleId: UUID)</text><text fill="#000000" font-family="sans-serif" font-size="14" lengthAdjust="spacing" textLength="326.3477" x="390.5" y="615.3701">+updateStatus(newStatus: AssignmentStatus)</text><text fill="#000000" font-family="sans-serif" font-size="14" lengthAdjust="spacing" textLength="237.1113" x="390.5" y="631.667">+calculateEstimatedArrivalTime()</text><text fill="#000000" font-family="sans-serif" font-size="14" lengthAdjust="spacing" textLength="249.0605" x="390.5" y="647.9639">+cancelAssignment(reason: String)</text><text fill="#000000" font-family="sans-serif" font-size="14" lengthAdjust="spacing" textLength="105.7656" x="390.5" y="664.2607">+notifyDriver()</text></g><!--class MatchingCriteria--><g id="elem_MatchingCriteria"><rect codeLine="20" fill="#F1F1F1" height="129.4844" id="MatchingCriteria" rx="2.5" ry="2.5" style="stroke:#181818;stroke-width:0.5;" width="291.2139" x="7" y="485.5"/><ellipse cx="90.2993" cy="501.5" fill="#ADD1B2" rx="11" ry="11" style="stroke:#181818;stroke-width:1.0;"/><path d="M93.2681,507.1406 Q92.6899,507.4375 92.0493,507.5781 Q91.4087,507.7344 90.7056,507.7344 Q88.2056,507.7344 86.8774,506.0938 Q85.5649,504.4375 85.5649,501.3125 Q85.5649,498.1875 86.8774,496.5313 Q88.2056,494.875 90.7056,494.875 Q91.4087,494.875 92.0493,495.0313 Q92.7056,495.1875 93.2681,495.4844 L93.2681,498.2031 Q92.6431,497.625 92.0493,497.3594 Q91.4556,497.0781 90.8306,497.0781 Q89.4868,497.0781 88.7993,498.1563 Q88.1118,499.2188 88.1118,501.3125 Q88.1118,503.4063 88.7993,504.4844 Q89.4868,505.5469 90.8306,505.5469 Q91.4556,505.5469 92.0493,505.2813 Q92.6431,505 93.2681,504.4219 L93.2681,507.1406 Z " fill="#000000"/><text fill="#000000" font-family="sans-serif" font-size="14" lengthAdjust="spacing" textLength="116.1152" x="110.7993" y="506.3467">MatchingCriteria</text><line style="stroke:#181818;stroke-width:0.5;" x1="8" x2="297.2139" y1="517.5" y2="517.5"/><text fill="#000000" font-family="sans-serif" font-size="14" lengthAdjust="spacing" textLength="129.2266" x="13" y="534.4951">-location: Location</text><text fill="#000000" font-family="sans-serif" font-size="14" lengthAdjust="spacing" textLength="140.1982" x="13" y="550.792">-vehicleType: String</text><text fill="#000000" font-family="sans-serif" font-size="14" lengthAdjust="spacing" textLength="91.5742" x="13" y="567.0889">-capacity: int</text><text fill="#000000" font-family="sans-serif" font-size="14" lengthAdjust="spacing" textLength="250.8379" x="13" y="583.3857">-deliveryTimeWindow: TimeWindow</text><line style="stroke:#181818;stroke-width:1.0;" x1="8" x2="297.2139" y1="590.6875" y2="590.6875"/><text fill="#000000" font-family="sans-serif" font-size="14" lengthAdjust="spacing" textLength="279.2139" x="13" y="607.6826">+isMatch(driver: DriverProfile): boolean</text></g><!--class Location--><g id="elem_Location"><rect codeLine="30" fill="#F1F1F1" height="96.8906" id="Location" rx="2.5" ry="2.5" style="stroke:#181818;stroke-width:0.5;" width="273.8984" x="242.5" y="773.5"/><ellipse cx="345.4697" cy="789.5" fill="#ADD1B2" rx="11" ry="11" style="stroke:#181818;stroke-width:1.0;"/><path d="M348.4385,795.1406 Q347.8604,795.4375 347.2197,795.5781 Q346.5791,795.7344 345.876,795.7344 Q343.376,795.7344 342.0479,794.0938 Q340.7354,792.4375 340.7354,789.3125 Q340.7354,786.1875 342.0479,784.5313 Q343.376,782.875 345.876,782.875 Q346.5791,782.875 347.2197,783.0313 Q347.876,783.1875 348.4385,783.4844 L348.4385,786.2031 Q347.8135,785.625 347.2197,785.3594 Q346.626,785.0781 346.001,785.0781 Q344.6572,785.0781 343.9697,786.1563 Q343.2822,787.2188 343.2822,789.3125 Q343.2822,791.4063 343.9697,792.4844 Q344.6572,793.5469 346.001,793.5469 Q346.626,793.5469 347.2197,793.2813 Q347.8135,793 348.4385,792.4219 L348.4385,795.1406 Z " fill="#000000"/><text fill="#000000" font-family="sans-serif" font-size="14" lengthAdjust="spacing" textLength="59.459" x="365.9697" y="794.3467">Location</text><line style="stroke:#181818;stroke-width:0.5;" x1="243.5" x2="515.3984" y1="805.5" y2="805.5"/><text fill="#000000" font-family="sans-serif" font-size="14" lengthAdjust="spacing" textLength="115.6436" x="248.5" y="822.4951">-latitude: double</text><text fill="#000000" font-family="sans-serif" font-size="14" lengthAdjust="spacing" textLength="127.9004" x="248.5" y="838.792">-longitude: double</text><line style="stroke:#181818;stroke-width:1.0;" x1="243.5" x2="515.3984" y1="846.0938" y2="846.0938"/><text fill="#000000" font-family="sans-serif" font-size="14" lengthAdjust="spacing" textLength="261.8984" x="248.5" y="863.0889">+distanceTo(other: Location): double</text></g><!--class AssignmentStatus--><g id="elem_AssignmentStatus"><rect codeLine="37" fill="#F1F1F1" height="145.7813" id="AssignmentStatus" rx="2.5" ry="2.5" style="stroke:#181818;stroke-width:0.5;" width="159.0391" x="552" y="749"/><ellipse cx="567" cy="765" fill="#EB937F" rx="11" ry="11" style="stroke:#181818;stroke-width:1.0;"/><path d="M571.1094,771 L563.3906,771 L563.3906,758.6094 L571.1094,758.6094 L571.1094,760.7656 L565.8438,760.7656 L565.8438,763.4375 L570.6094,763.4375 L570.6094,765.5938 L565.8438,765.5938 L565.8438,768.8438 L571.1094,768.8438 L571.1094,771 Z " fill="#000000"/><text fill="#000000" font-family="sans-serif" font-size="14" lengthAdjust="spacing" textLength="127.0391" x="581" y="769.8467">AssignmentStatus</text><line style="stroke:#181818;stroke-width:0.5;" x1="553" x2="710.0391" y1="781" y2="781"/><text fill="#000000" font-family="sans-serif" font-size="14" lengthAdjust="spacing" textLength="56.4648" x="558" y="797.9951">Pending</text><text fill="#000000" font-family="sans-serif" font-size="14" lengthAdjust="spacing" textLength="63.3145" x="558" y="814.292">Assigned</text><text fill="#000000" font-family="sans-serif" font-size="14" lengthAdjust="spacing" textLength="108.541" x="558" y="830.5889">DriverAccepted</text><text fill="#000000" font-family="sans-serif" font-size="14" lengthAdjust="spacing" textLength="73.6094" x="558" y="846.8857">InProgress</text><text fill="#000000" font-family="sans-serif" font-size="14" lengthAdjust="spacing" textLength="76.3574" x="558" y="863.1826">Completed</text><text fill="#000000" font-family="sans-serif" font-size="14" lengthAdjust="spacing" textLength="68.8174" x="558" y="879.4795">Cancelled</text><line style="stroke:#181818;stroke-width:0.5;" x1="553" x2="710.0391" y1="886.7813" y2="886.7813"/></g><!--class TimeWindow--><g id="elem_TimeWindow"><rect codeLine="46" fill="#F1F1F1" height="80.5938" id="TimeWindow" rx="2.5" ry="2.5" style="stroke:#181818;stroke-width:0.5;" width="161.6729" x="45.5" y="781.5"/><ellipse cx="78.2627" cy="797.5" fill="#ADD1B2" rx="11" ry="11" style="stroke:#181818;stroke-width:1.0;"/><path d="M81.2314,803.1406 Q80.6533,803.4375 80.0127,803.5781 Q79.3721,803.7344 78.6689,803.7344 Q76.1689,803.7344 74.8408,802.0938 Q73.5283,800.4375 73.5283,797.3125 Q73.5283,794.1875 74.8408,792.5313 Q76.1689,790.875 78.6689,790.875 Q79.3721,790.875 80.0127,791.0313 Q80.6689,791.1875 81.2314,791.4844 L81.2314,794.2031 Q80.6064,793.625 80.0127,793.3594 Q79.4189,793.0781 78.7939,793.0781 Q77.4502,793.0781 76.7627,794.1563 Q76.0752,795.2188 76.0752,797.3125 Q76.0752,799.4063 76.7627,800.4844 Q77.4502,801.5469 78.7939,801.5469 Q79.4189,801.5469 80.0127,801.2813 Q80.6064,801 81.2314,800.4219 L81.2314,803.1406 Z " fill="#000000"/><text fill="#000000" font-family="sans-serif" font-size="14" lengthAdjust="spacing" textLength="90.2002" x="96.21" y="802.3467">TimeWindow</text><line style="stroke:#181818;stroke-width:0.5;" x1="46.5" x2="206.1729" y1="813.5" y2="813.5"/><text fill="#000000" font-family="sans-serif" font-size="14" lengthAdjust="spacing" textLength="149.6729" x="51.5" y="830.4951">-startTime: DateTime</text><text fill="#000000" font-family="sans-serif" font-size="14" lengthAdjust="spacing" textLength="143.4385" x="51.5" y="846.792">-endTime: DateTime</text><line style="stroke:#181818;stroke-width:0.5;" x1="46.5" x2="206.1729" y1="854.0938" y2="854.0938"/></g><!--class DriverMatchResult--><g id="elem_DriverMatchResult"><rect codeLine="51" fill="#F1F1F1" height="96.8906" id="DriverMatchResult" rx="2.5" ry="2.5" style="stroke:#181818;stroke-width:0.5;" width="245.29" x="1733" y="39.5"/><ellipse cx="1786.5527" cy="55.5" fill="#ADD1B2" rx="11" ry="11" style="stroke:#181818;stroke-width:1.0;"/><path d="M1789.5215,61.1406 Q1788.9434,61.4375 1788.3027,61.5781 Q1787.6621,61.7344 1786.959,61.7344 Q1784.459,61.7344 1783.1309,60.0938 Q1781.8184,58.4375 1781.8184,55.3125 Q1781.8184,52.1875 1783.1309,50.5313 Q1784.459,48.875 1786.959,48.875 Q1787.6621,48.875 1788.3027,49.0313 Q1788.959,49.1875 1789.5215,49.4844 L1789.5215,52.2031 Q1788.8965,51.625 1788.3027,51.3594 Q1787.709,51.0781 1787.084,51.0781 Q1785.7402,51.0781 1785.0527,52.1563 Q1784.3652,53.2188 1784.3652,55.3125 Q1784.3652,57.4063 1785.0527,58.4844 Q1785.7402,59.5469 1787.084,59.5469 Q1787.709,59.5469 1788.3027,59.2813 Q1788.8965,59 1789.5215,58.4219 L1789.5215,61.1406 Z " fill="#000000"/><text fill="#000000" font-family="sans-serif" font-size="14" lengthAdjust="spacing" textLength="129.6846" x="1807.0527" y="60.3467">DriverMatchResult</text><line style="stroke:#181818;stroke-width:0.5;" x1="1734" x2="1977.29" y1="71.5" y2="71.5"/><text fill="#000000" font-family="sans-serif" font-size="14" lengthAdjust="spacing" textLength="103.8242" x="1739" y="88.4951">-driverId: UUID</text><text fill="#000000" font-family="sans-serif" font-size="14" lengthAdjust="spacing" textLength="99.8594" x="1739" y="104.792">-score: double</text><text fill="#000000" font-family="sans-serif" font-size="14" lengthAdjust="spacing" textLength="233.29" x="1739" y="121.0889">-estimatedArrivalTime: DateTime</text><line style="stroke:#181818;stroke-width:0.5;" x1="1734" x2="1977.29" y1="128.3906" y2="128.3906"/></g><!--class MatchingService--><g id="elem_MatchingService"><rect codeLine="58" fill="#F1F1F1" height="64.2969" id="MatchingService" rx="2.5" ry="2.5" style="stroke:#181818;stroke-width:0.5;" width="369.3281" x="1229" y="274.5"/><ellipse cx="1351.3599" cy="290.5" fill="#B4A7E5" rx="11" ry="11" style="stroke:#181818;stroke-width:1.0;"/><path d="M1347.2817,286.2656 L1347.2817,284.1094 L1354.6724,284.1094 L1354.6724,286.2656 L1352.2036,286.2656 L1352.2036,294.3438 L1354.6724,294.3438 L1354.6724,296.5 L1347.2817,296.5 L1347.2817,294.3438 L1349.7505,294.3438 L1349.7505,286.2656 L1347.2817,286.2656 Z " fill="#000000"/><text fill="#000000" font-family="sans-serif" font-size="14" font-style="italic" lengthAdjust="spacing" textLength="116.1084" x="1371.8599" y="295.3467">MatchingService</text><line style="stroke:#181818;stroke-width:0.5;" x1="1230" x2="1597.3281" y1="306.5" y2="306.5"/><line style="stroke:#181818;stroke-width:0.5;" x1="1230" x2="1597.3281" y1="314.5" y2="314.5"/><text fill="#000000" font-family="sans-serif" font-size="14" lengthAdjust="spacing" textLength="357.3281" x="1235" y="331.4951">+findBestDriver(orderId: UUID): DriverMatchResult</text></g><!--class NotificationService--><g id="elem_NotificationService"><rect codeLine="62" fill="#F1F1F1" height="80.5938" id="NotificationService" rx="2.5" ry="2.5" style="stroke:#181818;stroke-width:0.5;" width="388.9678" x="733" y="266"/><ellipse cx="857.1987" cy="282" fill="#B4A7E5" rx="11" ry="11" style="stroke:#181818;stroke-width:1.0;"/><path d="M853.1206,277.7656 L853.1206,275.6094 L860.5112,275.6094 L860.5112,277.7656 L858.0425,277.7656 L858.0425,285.8438 L860.5112,285.8438 L860.5112,288 L853.1206,288 L853.1206,285.8438 L855.5894,285.8438 L855.5894,277.7656 L853.1206,277.7656 Z " fill="#000000"/><text fill="#000000" font-family="sans-serif" font-size="14" font-style="italic" lengthAdjust="spacing" textLength="132.0703" x="877.6987" y="286.8467">NotificationService</text><line style="stroke:#181818;stroke-width:0.5;" x1="734" x2="1120.9678" y1="298" y2="298"/><line style="stroke:#181818;stroke-width:0.5;" x1="734" x2="1120.9678" y1="306" y2="306"/><text fill="#000000" font-family="sans-serif" font-size="14" lengthAdjust="spacing" textLength="327.3047" x="739" y="322.9951">+notifyDriver(driverId: UUID, message: String)</text><text fill="#000000" font-family="sans-serif" font-size="14" lengthAdjust="spacing" textLength="376.9678" x="739" y="339.292">+notifyCustomer(customerId: UUID, message: String)</text></g><!--class AssignmentApplicationService--><g id="elem_AssignmentApplicationService"><rect codeLine="68" fill="#F1F1F1" height="162.0781" id="AssignmentApplicationService" rx="2.5" ry="2.5" style="stroke:#181818;stroke-width:0.5;" width="568.6914" x="1129" y="7"/><ellipse cx="1302.8994" cy="23" fill="#ADD1B2" rx="11" ry="11" style="stroke:#181818;stroke-width:1.0;"/><path d="M1305.8682,28.6406 Q1305.29,28.9375 1304.6494,29.0781 Q1304.0088,29.2344 1303.3057,29.2344 Q1300.8057,29.2344 1299.4775,27.5938 Q1298.165,25.9375 1298.165,22.8125 Q1298.165,19.6875 1299.4775,18.0313 Q1300.8057,16.375 1303.3057,16.375 Q1304.0088,16.375 1304.6494,16.5313 Q1305.3057,16.6875 1305.8682,16.9844 L1305.8682,19.7031 Q1305.2432,19.125 1304.6494,18.8594 Q1304.0557,18.5781 1303.4307,18.5781 Q1302.0869,18.5781 1301.3994,19.6563 Q1300.7119,20.7188 1300.7119,22.8125 Q1300.7119,24.9063 1301.3994,25.9844 Q1302.0869,27.0469 1303.4307,27.0469 Q1304.0557,27.0469 1304.6494,26.7813 Q1305.2432,26.5 1305.8682,25.9219 L1305.8682,28.6406 Z " fill="#000000"/><text fill="#000000" font-family="sans-serif" font-size="14" lengthAdjust="spacing" textLength="212.3926" x="1323.3994" y="27.8467">AssignmentApplicationService</text><line style="stroke:#181818;stroke-width:0.5;" x1="1130" x2="1696.6914" y1="39" y2="39"/><text fill="#000000" font-family="sans-serif" font-size="14" lengthAdjust="spacing" textLength="328.2207" x="1135" y="55.9951">-assignmentRepository: AssignmentRepository</text><text fill="#000000" font-family="sans-serif" font-size="14" lengthAdjust="spacing" textLength="248.6299" x="1135" y="72.292">-driverRepository: DriverRepository</text><text fill="#000000" font-family="sans-serif" font-size="14" lengthAdjust="spacing" textLength="247.9941" x="1135" y="88.5889">-matchingService: MatchingService</text><text fill="#000000" font-family="sans-serif" font-size="14" lengthAdjust="spacing" textLength="276.7598" x="1135" y="104.8857">-notificationService: NotificationService</text><line style="stroke:#181818;stroke-width:1.0;" x1="1130" x2="1696.6914" y1="112.1875" y2="112.1875"/><text fill="#000000" font-family="sans-serif" font-size="14" lengthAdjust="spacing" textLength="202.125" x="1135" y="129.1826">+matchOrder(orderId: UUID)</text><text fill="#000000" font-family="sans-serif" font-size="14" lengthAdjust="spacing" textLength="556.6914" x="1135" y="145.4795">+updateAssignmentStatus(assignmentId: UUID, newStatus: AssignmentStatus)</text><text fill="#000000" font-family="sans-serif" font-size="14" lengthAdjust="spacing" textLength="396.9766" x="1135" y="161.7764">+cancelAssignment(assignmentId: UUID, reason: String)</text></g><!--class AssignmentRepository--><g id="elem_AssignmentRepository"><rect codeLine="80" fill="#F1F1F1" height="96.8906" id="AssignmentRepository" rx="2.5" ry="2.5" style="stroke:#181818;stroke-width:0.5;" width="319.1592" x="379" y="258"/><ellipse cx="455.5796" cy="274" fill="#B4A7E5" rx="11" ry="11" style="stroke:#181818;stroke-width:1.0;"/><path d="M451.5015,269.7656 L451.5015,267.6094 L458.8921,267.6094 L458.8921,269.7656 L456.4233,269.7656 L456.4233,277.8438 L458.8921,277.8438 L458.8921,280 L451.5015,280 L451.5015,277.8438 L453.9702,277.8438 L453.9702,269.7656 L451.5015,269.7656 Z " fill="#000000"/><text fill="#000000" font-family="sans-serif" font-size="14" font-style="italic" lengthAdjust="spacing" textLength="157.5" x="476.0796" y="278.8467">AssignmentRepository</text><line style="stroke:#181818;stroke-width:0.5;" x1="380" x2="697.1592" y1="290" y2="290"/><line style="stroke:#181818;stroke-width:0.5;" x1="380" x2="697.1592" y1="298" y2="298"/><text fill="#000000" font-family="sans-serif" font-size="14" lengthAdjust="spacing" textLength="228.4502" x="385" y="314.9951">+save(assignment: Assignment)</text><text fill="#000000" font-family="sans-serif" font-size="14" lengthAdjust="spacing" textLength="307.1592" x="385" y="331.292">+getById(assignmentId: UUID): Assignment</text><text fill="#000000" font-family="sans-serif" font-size="14" lengthAdjust="spacing" textLength="306.9268" x="385" y="347.5889">+findByOrderId(orderId: UUID): Assignment</text></g><!--class DriverRepository--><g id="elem_DriverRepository"><rect codeLine="86" fill="#F1F1F1" height="64.2969" id="DriverRepository" rx="2.5" ry="2.5" style="stroke:#181818;stroke-width:0.5;" width="495.0137" x="928" y="518"/><ellipse cx="1112.1807" cy="534" fill="#B4A7E5" rx="11" ry="11" style="stroke:#181818;stroke-width:1.0;"/><path d="M1108.1025,529.7656 L1108.1025,527.6094 L1115.4932,527.6094 L1115.4932,529.7656 L1113.0244,529.7656 L1113.0244,537.8438 L1115.4932,537.8438 L1115.4932,540 L1108.1025,540 L1108.1025,537.8438 L1110.5713,537.8438 L1110.5713,529.7656 L1108.1025,529.7656 Z " fill="#000000"/><text fill="#000000" font-family="sans-serif" font-size="14" font-style="italic" lengthAdjust="spacing" textLength="118.1523" x="1132.6807" y="538.8467">DriverRepository</text><line style="stroke:#181818;stroke-width:0.5;" x1="929" x2="1422.0137" y1="550" y2="550"/><line style="stroke:#181818;stroke-width:0.5;" x1="929" x2="1422.0137" y1="558" y2="558"/><text fill="#000000" font-family="sans-serif" font-size="14" lengthAdjust="spacing" textLength="483.0137" x="934" y="574.9951">+findAvailableDrivers(criteria: MatchingCriteria): List&lt;DriverProfile&gt;</text></g><!--class DriverProfile--><g id="elem_DriverProfile"><rect codeLine="91" fill="#F1F1F1" height="129.4844" id="DriverProfile" rx="2.5" ry="2.5" style="stroke:#181818;stroke-width:0.5;" width="196.1943" x="924.5" y="757.5"/><ellipse cx="974.7646" cy="773.5" fill="#ADD1B2" rx="11" ry="11" style="stroke:#181818;stroke-width:1.0;"/><path d="M977.7334,779.1406 Q977.1553,779.4375 976.5146,779.5781 Q975.874,779.7344 975.1709,779.7344 Q972.6709,779.7344 971.3428,778.0938 Q970.0303,776.4375 970.0303,773.3125 Q970.0303,770.1875 971.3428,768.5313 Q972.6709,766.875 975.1709,766.875 Q975.874,766.875 976.5146,767.0313 Q977.1709,767.1875 977.7334,767.4844 L977.7334,770.2031 Q977.1084,769.625 976.5146,769.3594 Q975.9209,769.0781 975.2959,769.0781 Q973.9521,769.0781 973.2646,770.1563 Q972.5771,771.2188 972.5771,773.3125 Q972.5771,775.4063 973.2646,776.4844 Q973.9521,777.5469 975.2959,777.5469 Q975.9209,777.5469 976.5146,777.2813 Q977.1084,777 977.7334,776.4219 L977.7334,779.1406 Z " fill="#000000"/><text fill="#000000" font-family="sans-serif" font-size="14" lengthAdjust="spacing" textLength="87.165" x="995.2646" y="778.3467">DriverProfile</text><line style="stroke:#181818;stroke-width:0.5;" x1="925.5" x2="1119.6943" y1="789.5" y2="789.5"/><text fill="#000000" font-family="sans-serif" font-size="14" lengthAdjust="spacing" textLength="103.8242" x="930.5" y="806.4951">-driverId: UUID</text><text fill="#000000" font-family="sans-serif" font-size="14" lengthAdjust="spacing" textLength="184.1943" x="930.5" y="822.792">-currentLocation: Location</text><text fill="#000000" font-family="sans-serif" font-size="14" lengthAdjust="spacing" textLength="99.0186" x="930.5" y="839.0889">-status: String</text><text fill="#000000" font-family="sans-serif" font-size="14" lengthAdjust="spacing" textLength="140.1982" x="930.5" y="855.3857">-vehicleType: String</text><text fill="#000000" font-family="sans-serif" font-size="14" lengthAdjust="spacing" textLength="91.5742" x="930.5" y="871.6826">-capacity: int</text><line style="stroke:#181818;stroke-width:0.5;" x1="925.5" x2="1119.6943" y1="878.9844" y2="878.9844"/></g><!--class DriverAssigned--><g id="elem_DriverAssigned"><rect codeLine="100" fill="#F1F1F1" height="121.4531" id="DriverAssigned" rx="2.5" ry="2.5" style="stroke:#181818;stroke-width:0.5;" width="162.7461" x="1633" y="246"/><ellipse cx="1658.9582" cy="266.1328" fill="#ADD1B2" rx="11" ry="11" style="stroke:#181818;stroke-width:1.0;"/><path d="M1661.927,271.7734 Q1661.3488,272.0703 1660.7082,272.2109 Q1660.0676,272.3672 1659.3645,272.3672 Q1656.8645,272.3672 1655.5363,270.7266 Q1654.2238,269.0703 1654.2238,265.9453 Q1654.2238,262.8203 1655.5363,261.1641 Q1656.8645,259.5078 1659.3645,259.5078 Q1660.0676,259.5078 1660.7082,259.6641 Q1661.3645,259.8203 1661.927,260.1172 L1661.927,262.8359 Q1661.302,262.2578 1660.7082,261.9922 Q1660.1145,261.7109 1659.4895,261.7109 Q1658.1457,261.7109 1657.4582,262.7891 Q1656.7707,263.8516 1656.7707,265.9453 Q1656.7707,268.0391 1657.4582,269.1172 Q1658.1457,270.1797 1659.4895,270.1797 Q1660.1145,270.1797 1660.7082,269.9141 Q1661.302,269.6328 1661.927,269.0547 L1661.927,271.7734 Z " fill="#000000"/><text fill="#000000" font-family="sans-serif" font-size="12" font-style="italic" lengthAdjust="spacing" textLength="49.1895" x="1703.9959" y="262.1387">&#171;Event&#187;</text><text fill="#000000" font-family="sans-serif" font-size="14" lengthAdjust="spacing" textLength="106.3945" x="1675.3934" y="277.9639">DriverAssigned</text><line style="stroke:#181818;stroke-width:0.5;" x1="1634" x2="1794.7461" y1="286.2656" y2="286.2656"/><text fill="#000000" font-family="sans-serif" font-size="14" lengthAdjust="spacing" textLength="150.7461" x="1639" y="303.2607">+assignmentId: UUID</text><text fill="#000000" font-family="sans-serif" font-size="14" lengthAdjust="spacing" textLength="106.8936" x="1639" y="319.5576">+orderId: UUID</text><text fill="#000000" font-family="sans-serif" font-size="14" lengthAdjust="spacing" textLength="110.5029" x="1639" y="335.8545">+driverId: UUID</text><text fill="#000000" font-family="sans-serif" font-size="14" lengthAdjust="spacing" textLength="119.1777" x="1639" y="352.1514">+vehicleId: UUID</text><line style="stroke:#181818;stroke-width:0.5;" x1="1634" x2="1794.7461" y1="359.4531" y2="359.4531"/></g><!--class AssignmentCancelled--><g id="elem_AssignmentCancelled"><rect codeLine="107" fill="#F1F1F1" height="88.8594" id="AssignmentCancelled" rx="2.5" ry="2.5" style="stroke:#181818;stroke-width:0.5;" width="183.2451" x="1831" y="262"/><ellipse cx="1846" cy="282.1328" fill="#ADD1B2" rx="11" ry="11" style="stroke:#181818;stroke-width:1.0;"/><path d="M1848.9688,287.7734 Q1848.3906,288.0703 1847.75,288.2109 Q1847.1094,288.3672 1846.4063,288.3672 Q1843.9063,288.3672 1842.5781,286.7266 Q1841.2656,285.0703 1841.2656,281.9453 Q1841.2656,278.8203 1842.5781,277.1641 Q1843.9063,275.5078 1846.4063,275.5078 Q1847.1094,275.5078 1847.75,275.6641 Q1848.4063,275.8203 1848.9688,276.1172 L1848.9688,278.8359 Q1848.3438,278.2578 1847.75,277.9922 Q1847.1563,277.7109 1846.5313,277.7109 Q1845.1875,277.7109 1844.5,278.7891 Q1843.8125,279.8516 1843.8125,281.9453 Q1843.8125,284.0391 1844.5,285.1172 Q1845.1875,286.1797 1846.5313,286.1797 Q1847.1563,286.1797 1847.75,285.9141 Q1848.3438,285.6328 1848.9688,285.0547 L1848.9688,287.7734 Z " fill="#000000"/><text fill="#000000" font-family="sans-serif" font-size="12" font-style="italic" lengthAdjust="spacing" textLength="49.1895" x="1911.0278" y="278.1387">&#171;Event&#187;</text><text fill="#000000" font-family="sans-serif" font-size="14" lengthAdjust="spacing" textLength="151.2451" x="1860" y="293.9639">AssignmentCancelled</text><line style="stroke:#181818;stroke-width:0.5;" x1="1832" x2="2013.2451" y1="302.2656" y2="302.2656"/><text fill="#000000" font-family="sans-serif" font-size="14" lengthAdjust="spacing" textLength="150.7461" x="1837" y="319.2607">+assignmentId: UUID</text><text fill="#000000" font-family="sans-serif" font-size="14" lengthAdjust="spacing" textLength="110.3594" x="1837" y="335.5576">+reason: String</text><line style="stroke:#181818;stroke-width:0.5;" x1="1832" x2="2013.2451" y1="342.8594" y2="342.8594"/></g><!--class AssignmentStatusUpdated--><g id="elem_AssignmentStatusUpdated"><rect codeLine="112" fill="#F1F1F1" height="105.1563" id="AssignmentStatusUpdated" rx="2.5" ry="2.5" style="stroke:#181818;stroke-width:0.5;" width="233.4844" x="2049" y="254"/><ellipse cx="2070.6854" cy="274.1328" fill="#ADD1B2" rx="11" ry="11" style="stroke:#181818;stroke-width:1.0;"/><path d="M2073.6542,279.7734 Q2073.076,280.0703 2072.4354,280.2109 Q2071.7948,280.3672 2071.0917,280.3672 Q2068.5917,280.3672 2067.2635,278.7266 Q2065.951,277.0703 2065.951,273.9453 Q2065.951,270.8203 2067.2635,269.1641 Q2068.5917,267.5078 2071.0917,267.5078 Q2071.7948,267.5078 2072.4354,267.6641 Q2073.0917,267.8203 2073.6542,268.1172 L2073.6542,270.8359 Q2073.0292,270.2578 2072.4354,269.9922 Q2071.8417,269.7109 2071.2167,269.7109 Q2069.8729,269.7109 2069.1854,270.7891 Q2068.4979,271.8516 2068.4979,273.9453 Q2068.4979,276.0391 2069.1854,277.1172 Q2069.8729,278.1797 2071.2167,278.1797 Q2071.8417,278.1797 2072.4354,277.9141 Q2073.0292,277.6328 2073.6542,277.0547 L2073.6542,279.7734 Z " fill="#000000"/><text fill="#000000" font-family="sans-serif" font-size="12" font-style="italic" lengthAdjust="spacing" textLength="49.1895" x="2154.8903" y="270.1387">&#171;Event&#187;</text><text fill="#000000" font-family="sans-serif" font-size="14" lengthAdjust="spacing" textLength="186.6279" x="2086.171" y="285.9639">AssignmentStatusUpdated</text><line style="stroke:#181818;stroke-width:0.5;" x1="2050" x2="2281.4844" y1="294.2656" y2="294.2656"/><text fill="#000000" font-family="sans-serif" font-size="14" lengthAdjust="spacing" textLength="150.7461" x="2055" y="311.2607">+assignmentId: UUID</text><text fill="#000000" font-family="sans-serif" font-size="14" lengthAdjust="spacing" textLength="213.8896" x="2055" y="327.5576">+oldStatus: AssignmentStatus</text><text fill="#000000" font-family="sans-serif" font-size="14" lengthAdjust="spacing" textLength="221.4844" x="2055" y="343.8545">+newStatus: AssignmentStatus</text><line style="stroke:#181818;stroke-width:0.5;" x1="2050" x2="2281.4844" y1="351.1563" y2="351.1563"/></g><!--reverse link Assignment to AssignmentStatus--><g id="link_Assignment_AssignmentStatus"><path codeLine="119" d="M618.3185,684.1249 C620.8385,710.3349 622.29,725.31 624.56,748.92 " fill="none" id="Assignment-backto-AssignmentStatus" style="stroke:#181818;stroke-width:1.0;"/><polygon fill="#181818" points="617.17,672.18,613.7626,678.5353,618.3185,684.1249,621.7259,677.7696,617.17,672.18" style="stroke:#181818;stroke-width:1.0;"/></g><!--reverse link Assignment to Location--><g id="link_Assignment_Location"><path codeLine="120" d="M487.8065,681.3605 C479.2065,691.3405 478.57,692.25 470.5,702 C451.43,725.04 431.13,751.4 414.56,773.44 " fill="none" id="Assignment-backto-Location" style="stroke:#181818;stroke-width:1.0;"/><polygon fill="#181818" points="495.64,672.27,488.6931,674.2041,487.8065,681.3605,494.7534,679.4264,495.64,672.27" style="stroke:#181818;stroke-width:1.0;"/><text fill="#000000" font-family="sans-serif" font-size="13" lengthAdjust="spacing" textLength="140.1372" x="471.5" y="715.0669">estimatedArrivalTime</text></g><!--reverse link Assignment to DriverProfile--><g id="link_Assignment_DriverProfile"><path codeLine="121" d="M802.723,678.7019 C848.193,708.1419 884.96,731.94 924.39,757.48 " fill="none" id="Assignment-backto-DriverProfile" style="stroke:#181818;stroke-width:1.0;"/><polygon fill="none" points="792.65,672.18,795.5125,678.7986,802.723,678.7019,799.8605,672.0833,792.65,672.18" style="stroke:#181818;stroke-width:1.0;"/><text fill="#000000" font-family="sans-serif" font-size="13" lengthAdjust="spacing" textLength="75.0483" x="865.5" y="715.0669">assigned to</text></g><!--reverse link MatchingCriteria to Location--><g id="link_MatchingCriteria_Location"><path codeLine="123" d="M213.731,623.8262 C254.621,672.4762 302.38,729.27 339.48,773.4 " fill="none" id="MatchingCriteria-backto-Location" style="stroke:#181818;stroke-width:1.0;"/><polygon fill="#181818" points="206.01,614.64,206.8084,621.8068,213.731,623.8262,212.9326,616.6595,206.01,614.64" style="stroke:#181818;stroke-width:1.0;"/></g><!--reverse link MatchingCriteria to TimeWindow--><g id="link_MatchingCriteria_TimeWindow"><path codeLine="124" d="M145.2197,626.5847 C140.2497,678.1947 134.55,737.38 130.33,781.21 " fill="none" id="MatchingCriteria-backto-TimeWindow" style="stroke:#181818;stroke-width:1.0;"/><polygon fill="#181818" points="146.37,614.64,141.8133,620.2289,145.2197,626.5847,149.7764,620.9958,146.37,614.64" style="stroke:#181818;stroke-width:1.0;"/></g><!--link AssignmentApplicationService to AssignmentRepository--><g id="link_AssignmentApplicationService_AssignmentRepository"><path codeLine="126" d="M1128.69,146.11 C1001.5,173.4 850.22,208.31 715.5,246 C702.39,249.67 694.5354,251.9358 681.0054,256.1758 " fill="none" id="AssignmentApplicationService-to-AssignmentRepository" style="stroke:#181818;stroke-width:1.0;stroke-dasharray:7.0,7.0;"/><polygon fill="#181818" points="675.28,257.97,685.0643,259.0956,680.0512,256.4748,682.672,251.4617,675.28,257.97" style="stroke:#181818;stroke-width:1.0;"/></g><!--link AssignmentApplicationService to DriverRepository--><g id="link_AssignmentApplicationService_DriverRepository"><path codeLine="127" d="M1278.96,169.11 C1252.65,190.83 1228.1,216.61 1211.5,246 C1161.61,334.33 1165.6422,454.0869 1171.1322,511.8369 " fill="none" id="AssignmentApplicationService-to-DriverRepository" style="stroke:#181818;stroke-width:1.0;stroke-dasharray:7.0,7.0;"/><polygon fill="#181818" points="1171.7,517.81,1174.8303,508.4718,1171.2268,512.8324,1166.8662,509.2289,1171.7,517.81" style="stroke:#181818;stroke-width:1.0;"/></g><!--link AssignmentApplicationService to MatchingService--><g id="link_AssignmentApplicationService_MatchingService"><path codeLine="128" d="M1413.5,169 C1413.5,205.62 1413.5,240.87 1413.5,268.35 " fill="none" id="AssignmentApplicationService-to-MatchingService" style="stroke:#181818;stroke-width:1.0;stroke-dasharray:7.0,7.0;"/><polygon fill="#181818" points="1413.5,274.35,1417.5,265.35,1413.5,269.35,1409.5,265.35,1413.5,274.35" style="stroke:#181818;stroke-width:1.0;"/></g><!--link AssignmentApplicationService to NotificationService--><g id="link_AssignmentApplicationService_NotificationService"><path codeLine="129" d="M1218.01,169.1 C1194.84,178.99 1171.59,189.11 1149.5,199 C1102,220.27 1054.8627,242.7697 1012.8327,263.2697 " fill="none" id="AssignmentApplicationService-to-NotificationService" style="stroke:#181818;stroke-width:1.0;stroke-dasharray:7.0,7.0;"/><polygon fill="#181818" points="1007.44,265.9,1017.2826,265.5497,1011.9339,263.7081,1013.7756,258.3594,1007.44,265.9" style="stroke:#181818;stroke-width:1.0;"/></g><!--link AssignmentRepository to Assignment--><g id="link_AssignmentRepository_Assignment"><path codeLine="131" d="M551.74,355.21 C557.57,376.24 563.1155,396.2285 570.2755,422.0285 " fill="none" id="AssignmentRepository-to-Assignment" style="stroke:#181818;stroke-width:1.0;stroke-dasharray:7.0,7.0;"/><polygon fill="#181818" points="571.88,427.81,573.3276,418.0681,570.5429,422.9921,565.619,420.2074,571.88,427.81" style="stroke:#181818;stroke-width:1.0;"/></g><!--link MatchingService to DriverRepository--><g id="link_MatchingService_DriverRepository"><path codeLine="133" d="M1382.87,338.58 C1337.3,384.82 1256.3212,466.9862 1210.6012,513.3862 " fill="none" id="MatchingService-to-DriverRepository" style="stroke:#181818;stroke-width:1.0;stroke-dasharray:7.0,7.0;"/><polygon fill="#181818" points="1206.39,517.66,1215.556,514.0567,1209.8993,514.0985,1209.8576,508.4418,1206.39,517.66" style="stroke:#181818;stroke-width:1.0;"/></g><!--link AssignmentApplicationService to DriverAssigned--><g id="link_AssignmentApplicationService_DriverAssigned"><path codeLine="136" d="M1524.73,169 C1560.56,194.78 1594.7295,219.346 1628.0195,243.296 " fill="none" id="AssignmentApplicationService-to-DriverAssigned" style="stroke:#181818;stroke-width:1.0;stroke-dasharray:7.0,7.0;"/><polygon fill="#181818" points="1632.89,246.8,1627.9202,238.297,1628.8312,243.88,1623.2482,244.791,1632.89,246.8" style="stroke:#181818;stroke-width:1.0;"/><text fill="#000000" font-family="sans-serif" font-size="13" lengthAdjust="spacing" textLength="36.1436" x="1583.5" y="212.0669">emits</text></g><!--link AssignmentApplicationService to AssignmentCancelled--><g id="link_AssignmentApplicationService_AssignmentCancelled"><path codeLine="137" d="M1632.02,169.04 C1691.52,192.39 1755.54,218.93 1813.5,246 C1823.95,250.88 1829.4724,253.541 1840.0924,259.091 " fill="none" id="AssignmentApplicationService-to-AssignmentCancelled" style="stroke:#181818;stroke-width:1.0;stroke-dasharray:7.0,7.0;"/><polygon fill="#181818" points="1845.41,261.87,1839.2862,254.1564,1840.9786,259.5542,1835.5809,261.2466,1845.41,261.87" style="stroke:#181818;stroke-width:1.0;"/><text fill="#000000" font-family="sans-serif" font-size="13" lengthAdjust="spacing" textLength="36.1436" x="1739.5" y="212.0669">emits</text></g><!--link AssignmentApplicationService to AssignmentStatusUpdated--><g id="link_AssignmentApplicationService_AssignmentStatusUpdated"><path codeLine="138" d="M1698.39,164.63 C1704.14,166.11 1709.85,167.56 1715.5,169 C1855.6,204.62 1894.67,199.37 2031.5,246 C2038.61,248.42 2040.2619,248.921 2047.5219,251.721 " fill="none" id="AssignmentApplicationService-to-AssignmentStatusUpdated" style="stroke:#181818;stroke-width:1.0;stroke-dasharray:7.0,7.0;"/><polygon fill="#181818" points="2053.12,253.88,2046.1622,246.9094,2048.4549,252.0808,2043.2835,254.3735,2053.12,253.88" style="stroke:#181818;stroke-width:1.0;"/><text fill="#000000" font-family="sans-serif" font-size="13" lengthAdjust="spacing" textLength="36.1436" x="1930.5" y="212.0669">emits</text></g><!--link DriverRepository to DriverProfile--><g id="link_DriverRepository_DriverProfile"><path codeLine="141" d="M1157.8,582.24 C1133.65,624.85 1092.7781,696.9899 1061.5481,752.0999 " fill="none" id="DriverRepository-to-DriverProfile" style="stroke:#181818;stroke-width:1.0;stroke-dasharray:7.0,7.0;"/><polygon fill="#181818" points="1058.59,757.32,1066.5073,751.462,1061.0551,752.9699,1059.5472,747.5178,1058.59,757.32" style="stroke:#181818;stroke-width:1.0;"/></g><!--SRC=[dLPBSzCm4BxxL-Y6Grg6iwVJcRJf8JE5CgI5ioflKe4iUIGv41Z-EsjPVaXMqq8lTLRx-FRrIUOxbpNLj29CK6DMrch-s5ZOC2Mt_1UGzrdsXjn8ooq7GwWioMg_rx2d5apcRCZA6BwN5KXBVcS4_yu97KIRiY0F3vkrFr2w11t9IiqFC-41dZWJ44cDfROnnIJarabcOUzv1GLP8yhson-3iRn2KRdI69AAbDAv-xVqhjOEMXwWFei0dyLO5zv5KvVekWEOI_YnVGPyhy-eO8r0avi4pdpKaWp4w2FNG8sI1TbYw-I-LvFAyjtHurzaVpBVh0_KiYVKkzRSWkPqQ9bGZ5hUEhhrNs4dxeyrz47y2QCrPTmU2yAbxPi9eWrvR35_vR9KFmeoVeSrviQXoRjwOYVS_qzQxRY0HK4UbH90PGl-3Vb2HGFaxl4RCDjFNezqJ09_sgP4eALg7WKCkSbzGjxZA3dE5LRrNkNAFhL8UiUBmG0nW6ogMVDyw4yWoxumdGgKxaUNquengAqNRIIcY3jakh6zLbKje3-yTkqL-6jesLY-8K_4gv-PSLb6yi5F1yML_3EOHephcjn0mvIE2_d21hb6hLL5kIHRq0VEa2HmDa3lA8DXzloH3xyaEqpk2bsdjcrHp76tSKQl7zj9vrs_Oi_15iHhMs47w1xIctFT6Aigj6B-uuITItjLryAZ67EF2NAY54ATSjTdg9NXLkdZb2j6QT2qgV8wadZ5AYnx4VV1gybv7OjKSSFTSSxlsev5VGj8CDwQV7v1d95NKMH4VYa_CI6wzWnLuS58fkexJ8-X1vX4cCBg0Ut1NXqtPGB7Oge-7VJZNLUdsPnFr8C1ZziQxCtgGBcWkA6TbicP9_PYHlKOuXQPxYAWsSkkFDkchfMsg3rSzW5hUEtJZC4QhH7zxNCtINzx1vV8Qw-NARVS731C2B0dNN9nuKulBuSoFVCOMIOU8yjKOilPOsIWrB5b0s__2u1mKbDkk_5_S4lqRxc9SdlgiRGyjMxzoWZNFVF4QvDDNdblpy_d9j7vS3KNoKjZggvGFPoomkU5ALkLPRCtopH0-dJovCXEqk-xTvTfadtHQiQsBrh4lFkYGOfzioHbXMcC9Ji9k7tPTvlqocI79SEcLlmrTga5-G_ZS0rw1ot-dzXpIGM-ef0lVrf3yfrMbSUB5PTuKxifwwXZaStOT4pFZzzV]--></g></svg>