<svg xmlns="http://www.w3.org/2000/svg" xmlns:xlink="http://www.w3.org/1999/xlink" contentStyleType="text/css" height="894px" preserveAspectRatio="none" style="width:1907px;height:894px;background:#FFFFFF;" version="1.1" viewBox="0 0 1907 894" width="1907px" zoomAndPan="magnify"><defs/><g><!--class Cart--><g id="elem_Cart"><rect codeLine="4" fill="#F1F1F1" height="276.1563" id="Cart" rx="2.5" ry="2.5" style="stroke:#181818;stroke-width:0.5;" width="342.0186" x="739.5" y="405"/><ellipse cx="891.4595" cy="421" fill="#ADD1B2" rx="11" ry="11" style="stroke:#181818;stroke-width:1.0;"/><path d="M894.4282,426.6406 Q893.8501,426.9375 893.2095,427.0781 Q892.5688,427.2344 891.8657,427.2344 Q889.3657,427.2344 888.0376,425.5938 Q886.7251,423.9375 886.7251,420.8125 Q886.7251,417.6875 888.0376,416.0313 Q889.3657,414.375 891.8657,414.375 Q892.5688,414.375 893.2095,414.5313 Q893.8657,414.6875 894.4282,414.9844 L894.4282,417.7031 Q893.8032,417.125 893.2095,416.8594 Q892.6157,416.5781 891.9907,416.5781 Q890.647,416.5781 889.9595,417.6563 Q889.272,418.7188 889.272,420.8125 Q889.272,422.9063 889.9595,423.9844 Q890.647,425.0469 891.9907,425.0469 Q892.6157,425.0469 893.2095,424.7813 Q893.8032,424.5 894.4282,423.9219 L894.4282,426.6406 Z " fill="#000000"/><text fill="#000000" font-family="sans-serif" font-size="14" lengthAdjust="spacing" textLength="29.5996" x="911.9595" y="425.8467">Cart</text><line style="stroke:#181818;stroke-width:0.5;" x1="740.5" x2="1080.5186" y1="437" y2="437"/><text fill="#000000" font-family="sans-serif" font-size="14" lengthAdjust="spacing" textLength="118.7676" x="745.5" y="453.9951">-stream_id: UUID</text><text fill="#000000" font-family="sans-serif" font-size="14" lengthAdjust="spacing" textLength="135.3242" x="745.5" y="470.292">-customer_id: UUID</text><text fill="#000000" font-family="sans-serif" font-size="14" lengthAdjust="spacing" textLength="132.9453" x="745.5" y="486.5889">-items: List&lt;Item&gt;</text><text fill="#000000" font-family="sans-serif" font-size="14" lengthAdjust="spacing" textLength="241.165" x="745.5" y="502.8857">-deliveryAddress: DeliveryAddress</text><text fill="#000000" font-family="sans-serif" font-size="14" lengthAdjust="spacing" textLength="213.459" x="745.5" y="519.1826">-promotions: List&lt;Promotion&gt;</text><text fill="#000000" font-family="sans-serif" font-size="14" lengthAdjust="spacing" textLength="204.4902" x="745.5" y="535.4795">-estimatedDeliveryTime: ETA</text><text fill="#000000" font-family="sans-serif" font-size="14" lengthAdjust="spacing" textLength="147.6631" x="745.5" y="551.7764">-totalAmount: Money</text><line style="stroke:#181818;stroke-width:1.0;" x1="740.5" x2="1080.5186" y1="559.0781" y2="559.0781"/><text fill="#000000" font-family="sans-serif" font-size="14" lengthAdjust="spacing" textLength="246.5449" x="745.5" y="576.0732">+addItem(menu_item_id, quantity)</text><text fill="#000000" font-family="sans-serif" font-size="14" lengthAdjust="spacing" textLength="206.3975" x="745.5" y="592.3701">+removeItem(menu_item_id)</text><text fill="#000000" font-family="sans-serif" font-size="14" lengthAdjust="spacing" textLength="330.0186" x="745.5" y="608.667">+updateItemQuantity(menu_item_id, quantity)</text><text fill="#000000" font-family="sans-serif" font-size="14" lengthAdjust="spacing" textLength="241.0352" x="745.5" y="624.9639">+applyPromotion(promotionCode)</text><text fill="#000000" font-family="sans-serif" font-size="14" lengthAdjust="spacing" textLength="128.3311" x="745.5" y="641.2607">+calculateTotals()</text><text fill="#000000" font-family="sans-serif" font-size="14" lengthAdjust="spacing" textLength="177.0645" x="745.5" y="657.5576">+estimateDeliveryTime()</text><text fill="#000000" font-family="sans-serif" font-size="14" lengthAdjust="spacing" textLength="187.8652" x="745.5" y="673.8545">+validateItemAvailability()</text></g><!--class Item--><g id="elem_Item"><rect codeLine="22" fill="#F1F1F1" height="129.4844" id="Item" rx="2.5" ry="2.5" style="stroke:#181818;stroke-width:0.5;" width="167.4355" x="7" y="758"/><ellipse cx="70.5332" cy="774" fill="#ADD1B2" rx="11" ry="11" style="stroke:#181818;stroke-width:1.0;"/><path d="M73.502,779.6406 Q72.9238,779.9375 72.2832,780.0781 Q71.6426,780.2344 70.9395,780.2344 Q68.4395,780.2344 67.1113,778.5938 Q65.7988,776.9375 65.7988,773.8125 Q65.7988,770.6875 67.1113,769.0313 Q68.4395,767.375 70.9395,767.375 Q71.6426,767.375 72.2832,767.5313 Q72.9395,767.6875 73.502,767.9844 L73.502,770.7031 Q72.877,770.125 72.2832,769.8594 Q71.6895,769.5781 71.0645,769.5781 Q69.7207,769.5781 69.0332,770.6563 Q68.3457,771.7188 68.3457,773.8125 Q68.3457,775.9063 69.0332,776.9844 Q69.7207,778.0469 71.0645,778.0469 Q71.6895,778.0469 72.2832,777.7813 Q72.877,777.5 73.502,776.9219 L73.502,779.6406 Z " fill="#000000"/><text fill="#000000" font-family="sans-serif" font-size="14" lengthAdjust="spacing" textLength="31.8691" x="91.0332" y="778.8467">Item</text><line style="stroke:#181818;stroke-width:0.5;" x1="8" x2="173.4355" y1="790" y2="790"/><text fill="#000000" font-family="sans-serif" font-size="14" lengthAdjust="spacing" textLength="148.0254" x="13" y="806.9951">-menu_item_id: UUID</text><text fill="#000000" font-family="sans-serif" font-size="14" lengthAdjust="spacing" textLength="90.8359" x="13" y="823.292">-quantity: int</text><text fill="#000000" font-family="sans-serif" font-size="14" lengthAdjust="spacing" textLength="140.2734" x="13" y="839.5889">-unit_price: Decimal</text><text fill="#000000" font-family="sans-serif" font-size="14" lengthAdjust="spacing" textLength="145.1611" x="13" y="855.8857">-total_price: Decimal</text><line style="stroke:#181818;stroke-width:1.0;" x1="8" x2="173.4355" y1="863.1875" y2="863.1875"/><text fill="#000000" font-family="sans-serif" font-size="14" lengthAdjust="spacing" textLength="155.4355" x="13" y="880.1826">+calculateTotalPrice()</text></g><!--class DeliveryAddress--><g id="elem_DeliveryAddress"><rect codeLine="31" fill="#F1F1F1" height="129.4844" id="DeliveryAddress" rx="2.5" ry="2.5" style="stroke:#181818;stroke-width:0.5;" width="146.5449" x="209" y="758"/><ellipse cx="224.0563" cy="774" fill="#ADD1B2" rx="11" ry="11" style="stroke:#181818;stroke-width:1.0;"/><path d="M227.025,779.6406 Q226.4469,779.9375 225.8063,780.0781 Q225.1656,780.2344 224.4625,780.2344 Q221.9625,780.2344 220.6344,778.5938 Q219.3219,776.9375 219.3219,773.8125 Q219.3219,770.6875 220.6344,769.0313 Q221.9625,767.375 224.4625,767.375 Q225.1656,767.375 225.8063,767.5313 Q226.4625,767.6875 227.025,767.9844 L227.025,770.7031 Q226.4,770.125 225.8063,769.8594 Q225.2125,769.5781 224.5875,769.5781 Q223.2438,769.5781 222.5563,770.6563 Q221.8688,771.7188 221.8688,773.8125 Q221.8688,775.9063 222.5563,776.9844 Q223.2438,778.0469 224.5875,778.0469 Q225.2125,778.0469 225.8063,777.7813 Q226.4,777.5 227.025,776.9219 L227.025,779.6406 Z " fill="#000000"/><text fill="#000000" font-family="sans-serif" font-size="14" lengthAdjust="spacing" textLength="114.4199" x="238.0688" y="778.8467">DeliveryAddress</text><line style="stroke:#181818;stroke-width:0.5;" x1="210" x2="354.5449" y1="790" y2="790"/><text fill="#000000" font-family="sans-serif" font-size="14" lengthAdjust="spacing" textLength="97.2549" x="215" y="806.9951">-street: String</text><text fill="#000000" font-family="sans-serif" font-size="14" lengthAdjust="spacing" textLength="81.3613" x="215" y="823.292">-city: String</text><text fill="#000000" font-family="sans-serif" font-size="14" lengthAdjust="spacing" textLength="91.4648" x="215" y="839.5889">-state: String</text><text fill="#000000" font-family="sans-serif" font-size="14" lengthAdjust="spacing" textLength="134.5449" x="215" y="855.8857">-postalCode: String</text><text fill="#000000" font-family="sans-serif" font-size="14" lengthAdjust="spacing" textLength="109.5391" x="215" y="872.1826">-country: String</text><line style="stroke:#181818;stroke-width:0.5;" x1="210" x2="354.5449" y1="879.4844" y2="879.4844"/></g><!--class Promotion--><g id="elem_Promotion"><rect codeLine="39" fill="#F1F1F1" height="96.8906" id="Promotion" rx="2.5" ry="2.5" style="stroke:#181818;stroke-width:0.5;" width="145.8408" x="391.5" y="774"/><ellipse cx="425.4255" cy="790" fill="#ADD1B2" rx="11" ry="11" style="stroke:#181818;stroke-width:1.0;"/><path d="M428.3942,795.6406 Q427.8161,795.9375 427.1755,796.0781 Q426.5349,796.2344 425.8317,796.2344 Q423.3317,796.2344 422.0036,794.5938 Q420.6911,792.9375 420.6911,789.8125 Q420.6911,786.6875 422.0036,785.0313 Q423.3317,783.375 425.8317,783.375 Q426.5349,783.375 427.1755,783.5313 Q427.8317,783.6875 428.3942,783.9844 L428.3942,786.7031 Q427.7692,786.125 427.1755,785.8594 Q426.5817,785.5781 425.9567,785.5781 Q424.613,785.5781 423.9255,786.6563 Q423.238,787.7188 423.238,789.8125 Q423.238,791.9063 423.9255,792.9844 Q424.613,794.0469 425.9567,794.0469 Q426.5817,794.0469 427.1755,793.7813 Q427.7692,793.5 428.3942,792.9219 L428.3942,795.6406 Z " fill="#000000"/><text fill="#000000" font-family="sans-serif" font-size="14" lengthAdjust="spacing" textLength="71.7842" x="443.6312" y="794.8467">Promotion</text><line style="stroke:#181818;stroke-width:0.5;" x1="392.5" x2="536.3408" y1="806" y2="806"/><text fill="#000000" font-family="sans-serif" font-size="14" lengthAdjust="spacing" textLength="89.7627" x="397.5" y="822.9951">-code: String</text><text fill="#000000" font-family="sans-serif" font-size="14" lengthAdjust="spacing" textLength="133.8408" x="397.5" y="839.292">-description: String</text><text fill="#000000" font-family="sans-serif" font-size="14" lengthAdjust="spacing" textLength="109.5459" x="397.5" y="855.5889">-value: Decimal</text><line style="stroke:#181818;stroke-width:0.5;" x1="392.5" x2="536.3408" y1="862.8906" y2="862.8906"/></g><!--class ETA--><g id="elem_ETA"><rect codeLine="45" fill="#F1F1F1" height="80.5938" id="ETA" rx="2.5" ry="2.5" style="stroke:#181818;stroke-width:0.5;" width="146.7705" x="573" y="782"/><ellipse cx="628.6479" cy="798" fill="#ADD1B2" rx="11" ry="11" style="stroke:#181818;stroke-width:1.0;"/><path d="M631.6167,803.6406 Q631.0386,803.9375 630.3979,804.0781 Q629.7573,804.2344 629.0542,804.2344 Q626.5542,804.2344 625.2261,802.5938 Q623.9136,800.9375 623.9136,797.8125 Q623.9136,794.6875 625.2261,793.0313 Q626.5542,791.375 629.0542,791.375 Q629.7573,791.375 630.3979,791.5313 Q631.0542,791.6875 631.6167,791.9844 L631.6167,794.7031 Q630.9917,794.125 630.3979,793.8594 Q629.8042,793.5781 629.1792,793.5781 Q627.8354,793.5781 627.1479,794.6563 Q626.4604,795.7188 626.4604,797.8125 Q626.4604,799.9063 627.1479,800.9844 Q627.8354,802.0469 629.1792,802.0469 Q629.8042,802.0469 630.3979,801.7813 Q630.9917,801.5 631.6167,800.9219 L631.6167,803.6406 Z " fill="#000000"/><text fill="#000000" font-family="sans-serif" font-size="14" lengthAdjust="spacing" textLength="26.9746" x="649.1479" y="802.8467">ETA</text><line style="stroke:#181818;stroke-width:0.5;" x1="574" x2="718.7705" y1="814" y2="814"/><text fill="#000000" font-family="sans-serif" font-size="14" lengthAdjust="spacing" textLength="134.7705" x="579" y="830.9951">-preapare_time: int</text><text fill="#000000" font-family="sans-serif" font-size="14" lengthAdjust="spacing" textLength="130.5801" x="579" y="847.292">-shipping_time: int</text><line style="stroke:#181818;stroke-width:0.5;" x1="574" x2="718.7705" y1="854.5938" y2="854.5938"/></g><!--class PricingService--><g id="elem_PricingService"><rect codeLine="51" fill="#F1F1F1" height="80.5938" id="PricingService" rx="2.5" ry="2.5" style="stroke:#181818;stroke-width:0.5;" width="439.5879" x="275.5" y="263"/><ellipse cx="441.4561" cy="279" fill="#B4A7E5" rx="11" ry="11" style="stroke:#181818;stroke-width:1.0;"/><path d="M437.3779,274.7656 L437.3779,272.6094 L444.7686,272.6094 L444.7686,274.7656 L442.2998,274.7656 L442.2998,282.8438 L444.7686,282.8438 L444.7686,285 L437.3779,285 L437.3779,282.8438 L439.8467,282.8438 L439.8467,274.7656 L437.3779,274.7656 Z " fill="#000000"/><text fill="#000000" font-family="sans-serif" font-size="14" font-style="italic" lengthAdjust="spacing" textLength="99.1758" x="461.9561" y="283.8467">PricingService</text><line style="stroke:#181818;stroke-width:0.5;" x1="276.5" x2="714.0879" y1="295" y2="295"/><line style="stroke:#181818;stroke-width:0.5;" x1="276.5" x2="714.0879" y1="303" y2="303"/><text fill="#000000" font-family="sans-serif" font-size="14" lengthAdjust="spacing" textLength="282.502" x="281.5" y="319.9951">+calculateCartPrice(cart: Cart): Decimal</text><text fill="#000000" font-family="sans-serif" font-size="14" lengthAdjust="spacing" textLength="427.5879" x="281.5" y="336.292">+applyPromotion(cart: Cart, promotion: Promotion): Decimal</text></g><!--class AvailabilityService--><g id="elem_AvailabilityService"><rect codeLine="56" fill="#F1F1F1" height="64.2969" id="AvailabilityService" rx="2.5" ry="2.5" style="stroke:#181818;stroke-width:0.5;" width="319.5898" x="750.5" y="271.5"/><ellipse cx="841.6094" cy="287.5" fill="#B4A7E5" rx="11" ry="11" style="stroke:#181818;stroke-width:1.0;"/><path d="M837.5313,283.2656 L837.5313,281.1094 L844.9219,281.1094 L844.9219,283.2656 L842.4531,283.2656 L842.4531,291.3438 L844.9219,291.3438 L844.9219,293.5 L837.5313,293.5 L837.5313,291.3438 L840,291.3438 L840,283.2656 L837.5313,283.2656 Z " fill="#000000"/><text fill="#000000" font-family="sans-serif" font-size="14" font-style="italic" lengthAdjust="spacing" textLength="128.8711" x="862.1094" y="292.3467">AvailabilityService</text><line style="stroke:#181818;stroke-width:0.5;" x1="751.5" x2="1069.0898" y1="303.5" y2="303.5"/><line style="stroke:#181818;stroke-width:0.5;" x1="751.5" x2="1069.0898" y1="311.5" y2="311.5"/><text fill="#000000" font-family="sans-serif" font-size="14" lengthAdjust="spacing" textLength="307.5898" x="756.5" y="328.4951">+validateItems(cart: Cart): ValidationResult</text></g><!--class DeliveryEstimationService--><g id="elem_DeliveryEstimationService"><rect codeLine="60" fill="#F1F1F1" height="64.2969" id="DeliveryEstimationService" rx="2.5" ry="2.5" style="stroke:#181818;stroke-width:0.5;" width="291.4941" x="1106" y="271.5"/><ellipse cx="1155.2939" cy="287.5" fill="#B4A7E5" rx="11" ry="11" style="stroke:#181818;stroke-width:1.0;"/><path d="M1151.2158,283.2656 L1151.2158,281.1094 L1158.6064,281.1094 L1158.6064,283.2656 L1156.1377,283.2656 L1156.1377,291.3438 L1158.6064,291.3438 L1158.6064,293.5 L1151.2158,293.5 L1151.2158,291.3438 L1153.6846,291.3438 L1153.6846,283.2656 L1151.2158,283.2656 Z " fill="#000000"/><text fill="#000000" font-family="sans-serif" font-size="14" font-style="italic" lengthAdjust="spacing" textLength="184.4063" x="1175.7939" y="292.3467">DeliveryEstimationService</text><line style="stroke:#181818;stroke-width:0.5;" x1="1107" x2="1396.4941" y1="303.5" y2="303.5"/><line style="stroke:#181818;stroke-width:0.5;" x1="1107" x2="1396.4941" y1="311.5" y2="311.5"/><text fill="#000000" font-family="sans-serif" font-size="14" lengthAdjust="spacing" textLength="279.4941" x="1112" y="328.4951">+estimateDeliveryTime(cart: Cart): ETA</text></g><!--class CartApplicationService--><g id="elem_CartApplicationService"><rect codeLine="65" fill="#F1F1F1" height="194.6719" id="CartApplicationService" rx="2.5" ry="2.5" style="stroke:#181818;stroke-width:0.5;" width="393.1377" x="714" y="7"/><ellipse cx="826.5366" cy="23" fill="#ADD1B2" rx="11" ry="11" style="stroke:#181818;stroke-width:1.0;"/><path d="M829.5054,28.6406 Q828.9272,28.9375 828.2866,29.0781 Q827.646,29.2344 826.9429,29.2344 Q824.4429,29.2344 823.1147,27.5938 Q821.8022,25.9375 821.8022,22.8125 Q821.8022,19.6875 823.1147,18.0313 Q824.4429,16.375 826.9429,16.375 Q827.646,16.375 828.2866,16.5313 Q828.9429,16.6875 829.5054,16.9844 L829.5054,19.7031 Q828.8804,19.125 828.2866,18.8594 Q827.6929,18.5781 827.0679,18.5781 Q825.7241,18.5781 825.0366,19.6563 Q824.3491,20.7188 824.3491,22.8125 Q824.3491,24.9063 825.0366,25.9844 Q825.7241,27.0469 827.0679,27.0469 Q827.6929,27.0469 828.2866,26.7813 Q828.8804,26.5 829.5054,25.9219 L829.5054,28.6406 Z " fill="#000000"/><text fill="#000000" font-family="sans-serif" font-size="14" lengthAdjust="spacing" textLength="159.5645" x="847.0366" y="27.8467">CartApplicationService</text><line style="stroke:#181818;stroke-width:0.5;" x1="715" x2="1106.1377" y1="39" y2="39"/><text fill="#000000" font-family="sans-serif" font-size="14" lengthAdjust="spacing" textLength="221.4844" x="720" y="55.9951">-cartRepository: CartRepository</text><text fill="#000000" font-family="sans-serif" font-size="14" lengthAdjust="spacing" textLength="213.0146" x="720" y="72.292">-pricingService: PricingService</text><text fill="#000000" font-family="sans-serif" font-size="14" lengthAdjust="spacing" textLength="270.9629" x="720" y="88.5889">-availabilityService: AvailabilityService</text><text fill="#000000" font-family="sans-serif" font-size="14" lengthAdjust="spacing" textLength="381.1377" x="720" y="104.8857">-deliveryEstimationService: DeliveryEstimationService</text><line style="stroke:#181818;stroke-width:1.0;" x1="715" x2="1106.1377" y1="112.1875" y2="112.1875"/><text fill="#000000" font-family="sans-serif" font-size="14" lengthAdjust="spacing" textLength="293.2617" x="720" y="129.1826">+addItemToCart(menu_item_id, quantity)</text><text fill="#000000" font-family="sans-serif" font-size="14" lengthAdjust="spacing" textLength="272.0088" x="720" y="145.4795">+removeItemFromCart(menu_item_id)</text><text fill="#000000" font-family="sans-serif" font-size="14" lengthAdjust="spacing" textLength="330.0186" x="720" y="161.7764">+updateItemQuantity(menu_item_id, quantity)</text><text fill="#000000" font-family="sans-serif" font-size="14" lengthAdjust="spacing" textLength="283.8008" x="720" y="178.0732">+applyPromotionToCart(promotio_code)</text><text fill="#000000" font-family="sans-serif" font-size="14" lengthAdjust="spacing" textLength="118.624" x="720" y="194.3701">+checkOutCart()</text></g><!--class CartRepository--><g id="elem_CartRepository"><rect codeLine="79" fill="#F1F1F1" height="80.5938" id="CartRepository" rx="2.5" ry="2.5" style="stroke:#181818;stroke-width:0.5;" width="310.6211" x="755" y="782"/><ellipse cx="853.7246" cy="798" fill="#B4A7E5" rx="11" ry="11" style="stroke:#181818;stroke-width:1.0;"/><path d="M849.6465,793.7656 L849.6465,791.6094 L857.0371,791.6094 L857.0371,793.7656 L854.5684,793.7656 L854.5684,801.8438 L857.0371,801.8438 L857.0371,804 L849.6465,804 L849.6465,801.8438 L852.1152,801.8438 L852.1152,793.7656 L849.6465,793.7656 Z " fill="#000000"/><text fill="#000000" font-family="sans-serif" font-size="14" font-style="italic" lengthAdjust="spacing" textLength="104.6719" x="874.2246" y="802.8467">CartRepository</text><line style="stroke:#181818;stroke-width:0.5;" x1="756" x2="1064.6211" y1="814" y2="814"/><line style="stroke:#181818;stroke-width:0.5;" x1="756" x2="1064.6211" y1="822" y2="822"/><text fill="#000000" font-family="sans-serif" font-size="14" lengthAdjust="spacing" textLength="298.6211" x="761" y="838.9951">+getCartByCustomerId(customer_id): Cart</text><text fill="#000000" font-family="sans-serif" font-size="14" lengthAdjust="spacing" textLength="121.7139" x="761" y="855.292">+save(cart: Cart)</text></g><!--class CartItemAdded--><g id="elem_CartItemAdded"><rect codeLine="85" fill="#F1F1F1" height="105.1563" id="CartItemAdded" rx="2.5" ry="2.5" style="stroke:#181818;stroke-width:0.5;" width="166.7041" x="1101" y="770"/><ellipse cx="1128.7731" cy="790.1328" fill="#ADD1B2" rx="11" ry="11" style="stroke:#181818;stroke-width:1.0;"/><path d="M1131.7419,795.7734 Q1131.1638,796.0703 1130.5231,796.2109 Q1129.8825,796.3672 1129.1794,796.3672 Q1126.6794,796.3672 1125.3513,794.7266 Q1124.0388,793.0703 1124.0388,789.9453 Q1124.0388,786.8203 1125.3513,785.1641 Q1126.6794,783.5078 1129.1794,783.5078 Q1129.8825,783.5078 1130.5231,783.6641 Q1131.1794,783.8203 1131.7419,784.1172 L1131.7419,786.8359 Q1131.1169,786.2578 1130.5231,785.9922 Q1129.9294,785.7109 1129.3044,785.7109 Q1127.9606,785.7109 1127.2731,786.7891 Q1126.5856,787.8516 1126.5856,789.9453 Q1126.5856,792.0391 1127.2731,793.1172 Q1127.9606,794.1797 1129.3044,794.1797 Q1129.9294,794.1797 1130.5231,793.9141 Q1131.1169,793.6328 1131.7419,793.0547 L1131.7419,795.7734 Z " fill="#000000"/><text fill="#000000" font-family="sans-serif" font-size="12" font-style="italic" lengthAdjust="spacing" textLength="49.1895" x="1174.1766" y="786.1387">&#171;Event&#187;</text><text fill="#000000" font-family="sans-serif" font-size="14" lengthAdjust="spacing" textLength="106.3193" x="1145.6116" y="801.9639">CartItemAdded</text><line style="stroke:#181818;stroke-width:0.5;" x1="1102" x2="1266.7041" y1="810.2656" y2="810.2656"/><text fill="#000000" font-family="sans-serif" font-size="14" lengthAdjust="spacing" textLength="125.4463" x="1107" y="827.2607">+stream_id: UUID</text><text fill="#000000" font-family="sans-serif" font-size="14" lengthAdjust="spacing" textLength="154.7041" x="1107" y="843.5576">+menu_item_id: UUID</text><text fill="#000000" font-family="sans-serif" font-size="14" lengthAdjust="spacing" textLength="97.5146" x="1107" y="859.8545">+quantity: int</text><line style="stroke:#181818;stroke-width:0.5;" x1="1102" x2="1266.7041" y1="867.1563" y2="867.1563"/></g><!--class CartItemRemoved--><g id="elem_CartItemRemoved"><rect codeLine="91" fill="#F1F1F1" height="88.8594" id="CartItemRemoved" rx="2.5" ry="2.5" style="stroke:#181818;stroke-width:0.5;" width="166.7041" x="1303" y="778"/><ellipse cx="1321.1078" cy="798.1328" fill="#ADD1B2" rx="11" ry="11" style="stroke:#181818;stroke-width:1.0;"/><path d="M1324.0766,803.7734 Q1323.4984,804.0703 1322.8578,804.2109 Q1322.2172,804.3672 1321.5141,804.3672 Q1319.0141,804.3672 1317.6859,802.7266 Q1316.3734,801.0703 1316.3734,797.9453 Q1316.3734,794.8203 1317.6859,793.1641 Q1319.0141,791.5078 1321.5141,791.5078 Q1322.2172,791.5078 1322.8578,791.6641 Q1323.5141,791.8203 1324.0766,792.1172 L1324.0766,794.8359 Q1323.4516,794.2578 1322.8578,793.9922 Q1322.2641,793.7109 1321.6391,793.7109 Q1320.2953,793.7109 1319.6078,794.7891 Q1318.9203,795.8516 1318.9203,797.9453 Q1318.9203,800.0391 1319.6078,801.1172 Q1320.2953,802.1797 1321.6391,802.1797 Q1322.2641,802.1797 1322.8578,801.9141 Q1323.4516,801.6328 1324.0766,801.0547 L1324.0766,803.7734 Z " fill="#000000"/><text fill="#000000" font-family="sans-serif" font-size="12" font-style="italic" lengthAdjust="spacing" textLength="49.1895" x="1375.1026" y="794.1387">&#171;Event&#187;</text><text fill="#000000" font-family="sans-serif" font-size="14" lengthAdjust="spacing" textLength="127.7979" x="1335.7984" y="809.9639">CartItemRemoved</text><line style="stroke:#181818;stroke-width:0.5;" x1="1304" x2="1468.7041" y1="818.2656" y2="818.2656"/><text fill="#000000" font-family="sans-serif" font-size="14" lengthAdjust="spacing" textLength="125.4463" x="1309" y="835.2607">+stream_id: UUID</text><text fill="#000000" font-family="sans-serif" font-size="14" lengthAdjust="spacing" textLength="154.7041" x="1309" y="851.5576">+menu_item_id: UUID</text><line style="stroke:#181818;stroke-width:0.5;" x1="1304" x2="1468.7041" y1="858.8594" y2="858.8594"/></g><!--class CartCheckedOut--><g id="elem_CartCheckedOut"><rect codeLine="96" fill="#F1F1F1" height="105.1563" id="CartCheckedOut" rx="2.5" ry="2.5" style="stroke:#181818;stroke-width:0.5;" width="172.3438" x="1505.5" y="770"/><ellipse cx="1531.6582" cy="790.1328" fill="#ADD1B2" rx="11" ry="11" style="stroke:#181818;stroke-width:1.0;"/><path d="M1534.6269,795.7734 Q1534.0488,796.0703 1533.4082,796.2109 Q1532.7675,796.3672 1532.0644,796.3672 Q1529.5644,796.3672 1528.2363,794.7266 Q1526.9238,793.0703 1526.9238,789.9453 Q1526.9238,786.8203 1528.2363,785.1641 Q1529.5644,783.5078 1532.0644,783.5078 Q1532.7675,783.5078 1533.4082,783.6641 Q1534.0644,783.8203 1534.6269,784.1172 L1534.6269,786.8359 Q1534.0019,786.2578 1533.4082,785.9922 Q1532.8144,785.7109 1532.1894,785.7109 Q1530.8457,785.7109 1530.1582,786.7891 Q1529.4707,787.8516 1529.4707,789.9453 Q1529.4707,792.0391 1530.1582,793.1172 Q1530.8457,794.1797 1532.1894,794.1797 Q1532.8144,794.1797 1533.4082,793.9141 Q1534.0019,793.6328 1534.6269,793.0547 L1534.6269,795.7734 Z " fill="#000000"/><text fill="#000000" font-family="sans-serif" font-size="12" font-style="italic" lengthAdjust="spacing" textLength="49.1895" x="1581.3169" y="786.1387">&#171;Event&#187;</text><text fill="#000000" font-family="sans-serif" font-size="14" lengthAdjust="spacing" textLength="115.5479" x="1548.1377" y="801.9639">CartCheckedOut</text><line style="stroke:#181818;stroke-width:0.5;" x1="1506.5" x2="1676.8438" y1="810.2656" y2="810.2656"/><text fill="#000000" font-family="sans-serif" font-size="14" lengthAdjust="spacing" textLength="125.4463" x="1511.5" y="827.2607">+stream_id: UUID</text><text fill="#000000" font-family="sans-serif" font-size="14" lengthAdjust="spacing" textLength="142.0029" x="1511.5" y="843.5576">+customer_id: UUID</text><text fill="#000000" font-family="sans-serif" font-size="14" lengthAdjust="spacing" textLength="160.3438" x="1511.5" y="859.8545">+total_amount: Money</text><line style="stroke:#181818;stroke-width:0.5;" x1="1506.5" x2="1676.8438" y1="867.1563" y2="867.1563"/></g><!--class PromotionApplied--><g id="elem_PromotionApplied"><rect codeLine="102" fill="#F1F1F1" height="88.8594" id="PromotionApplied" rx="2.5" ry="2.5" style="stroke:#181818;stroke-width:0.5;" width="187.6699" x="1712.5" y="778"/><ellipse cx="1741.5651" cy="798.1328" fill="#ADD1B2" rx="11" ry="11" style="stroke:#181818;stroke-width:1.0;"/><path d="M1744.5339,803.7734 Q1743.9558,804.0703 1743.3151,804.2109 Q1742.6745,804.3672 1741.9714,804.3672 Q1739.4714,804.3672 1738.1433,802.7266 Q1736.8308,801.0703 1736.8308,797.9453 Q1736.8308,794.8203 1738.1433,793.1641 Q1739.4714,791.5078 1741.9714,791.5078 Q1742.6745,791.5078 1743.3151,791.6641 Q1743.9714,791.8203 1744.5339,792.1172 L1744.5339,794.8359 Q1743.9089,794.2578 1743.3151,793.9922 Q1742.7214,793.7109 1742.0964,793.7109 Q1740.7526,793.7109 1740.0651,794.7891 Q1739.3776,795.8516 1739.3776,797.9453 Q1739.3776,800.0391 1740.0651,801.1172 Q1740.7526,802.1797 1742.0964,802.1797 Q1742.7214,802.1797 1743.3151,801.9141 Q1743.9089,801.6328 1744.5339,801.0547 L1744.5339,803.7734 Z " fill="#000000"/><text fill="#000000" font-family="sans-serif" font-size="12" font-style="italic" lengthAdjust="spacing" textLength="49.1895" x="1796.303" y="794.1387">&#171;Event&#187;</text><text fill="#000000" font-family="sans-serif" font-size="14" lengthAdjust="spacing" textLength="124.4141" x="1758.6907" y="809.9639">PromotionApplied</text><line style="stroke:#181818;stroke-width:0.5;" x1="1713.5" x2="1899.1699" y1="818.2656" y2="818.2656"/><text fill="#000000" font-family="sans-serif" font-size="14" lengthAdjust="spacing" textLength="125.4463" x="1718.5" y="835.2607">+stream_id: UUID</text><text fill="#000000" font-family="sans-serif" font-size="14" lengthAdjust="spacing" textLength="175.6699" x="1718.5" y="851.5576">+promotion_code: String</text><line style="stroke:#181818;stroke-width:0.5;" x1="1713.5" x2="1899.1699" y1="858.8594" y2="858.8594"/></g><!--reverse link Cart to Item--><g id="link_Cart_Item"><path codeLine="108" d="M727.7961,583.7783 C579.0961,619.1683 371.53,676.46 191.5,758 C185.75,760.61 179.93,763.49 174.15,766.56 " fill="none" id="Cart-backto-Item" style="stroke:#181818;stroke-width:1.0;"/><polygon fill="none" points="739.47,581,732.7069,578.4979,727.7961,583.7783,734.5591,586.2805,739.47,581" style="stroke:#181818;stroke-width:1.0;"/></g><!--reverse link Cart to DeliveryAddress--><g id="link_Cart_DeliveryAddress"><path codeLine="109" d="M728.1095,604.8173 C620.3195,643.3273 491.12,694.62 373.5,758 C367.73,761.11 361.89,764.51 356.1,768.07 " fill="none" id="Cart-backto-DeliveryAddress" style="stroke:#181818;stroke-width:1.0;"/><polygon fill="#181818" points="739.41,600.78,732.414,599.0318,728.1095,604.8173,735.1055,606.5655,739.41,600.78" style="stroke:#181818;stroke-width:1.0;"/></g><!--reverse link Cart to Promotion--><g id="link_Cart_Promotion"><path codeLine="110" d="M729.0431,650.2024 C670.2431,685.3924 614.65,719.59 555.5,758 C547.74,763.04 539.7,768.42 531.74,773.83 " fill="none" id="Cart-backto-Promotion" style="stroke:#181818;stroke-width:1.0;"/><polygon fill="#181818" points="739.34,644.04,732.1375,643.6889,729.0431,650.2024,736.2457,650.5535,739.34,644.04" style="stroke:#181818;stroke-width:1.0;"/></g><!--reverse link Cart to ETA--><g id="link_Cart_ETA"><path codeLine="111" d="M771.7784,689.8137 C736.6984,726.6837 709.75,755.01 684.29,781.77 " fill="none" id="Cart-backto-ETA" style="stroke:#181818;stroke-width:1.0;"/><polygon fill="#181818" points="780.05,681.12,773.0163,682.7096,771.7784,689.8137,778.8121,688.2241,780.05,681.12" style="stroke:#181818;stroke-width:1.0;"/></g><!--link CartApplicationService to PricingService--><g id="link_CartApplicationService_PricingService"><path codeLine="113" d="M713.94,198.81 C666.28,221.43 623.2601,241.8465 584.1501,260.4165 " fill="none" id="CartApplicationService-to-PricingService" style="stroke:#181818;stroke-width:1.0;stroke-dasharray:7.0,7.0;"/><polygon fill="#181818" points="578.73,262.99,588.5758,262.7431,583.2467,260.8454,585.1444,255.5163,578.73,262.99" style="stroke:#181818;stroke-width:1.0;"/></g><!--link CartApplicationService to AvailabilityService--><g id="link_CartApplicationService_AvailabilityService"><path codeLine="114" d="M910.5,202.27 C910.5,227.18 910.5,246.24 910.5,265.07 " fill="none" id="CartApplicationService-to-AvailabilityService" style="stroke:#181818;stroke-width:1.0;stroke-dasharray:7.0,7.0;"/><polygon fill="#181818" points="910.5,271.07,914.5,262.07,910.5,266.07,906.5,262.07,910.5,271.07" style="stroke:#181818;stroke-width:1.0;"/></g><!--link CartApplicationService to DeliveryEstimationService--><g id="link_CartApplicationService_DeliveryEstimationService"><path codeLine="115" d="M1078,202.27 C1121.29,227.28 1159.6349,249.4282 1192.2749,268.2882 " fill="none" id="CartApplicationService-to-DeliveryEstimationService" style="stroke:#181818;stroke-width:1.0;stroke-dasharray:7.0,7.0;"/><polygon fill="#181818" points="1197.47,271.29,1191.6786,263.3239,1193.1408,268.7885,1187.6761,270.2507,1197.47,271.29" style="stroke:#181818;stroke-width:1.0;"/></g><!--link PricingService to Cart--><g id="link_PricingService_Cart"><path codeLine="117" d="M564.96,344.25 C612.61,371.52 672.8224,405.98 733.9324,440.95 " fill="none" id="PricingService-to-Cart" style="stroke:#181818;stroke-width:1.0;stroke-dasharray:7.0,7.0;"/><polygon fill="#181818" points="739.14,443.93,733.3153,435.9882,734.8003,441.4466,729.3419,442.9317,739.14,443.93" style="stroke:#181818;stroke-width:1.0;"/></g><!--link AvailabilityService to Cart--><g id="link_AvailabilityService_Cart"><path codeLine="118" d="M910.5,335.55 C910.5,353.97 910.5,372.75 910.5,398.75 " fill="none" id="AvailabilityService-to-Cart" style="stroke:#181818;stroke-width:1.0;stroke-dasharray:7.0,7.0;"/><polygon fill="#181818" points="910.5,404.75,914.5,395.75,910.5,399.75,906.5,395.75,910.5,404.75" style="stroke:#181818;stroke-width:1.0;"/></g><!--link DeliveryEstimationService to Cart--><g id="link_DeliveryEstimationService_Cart"><path codeLine="119" d="M1206.92,335.55 C1174.42,358.18 1133.0635,386.9908 1086.7035,419.2808 " fill="none" id="DeliveryEstimationService-to-Cart" style="stroke:#181818;stroke-width:1.0;stroke-dasharray:7.0,7.0;"/><polygon fill="#181818" points="1081.78,422.71,1091.4513,420.8485,1085.8829,419.8523,1086.879,414.2839,1081.78,422.71" style="stroke:#181818;stroke-width:1.0;"/></g><!--link Cart to CartRepository--><g id="link_Cart_CartRepository"><path codeLine="120" d="M910.5,681.12 C910.5,717.99 910.5,749.01 910.5,775.77 " fill="none" id="Cart-to-CartRepository" style="stroke:#181818;stroke-width:1.0;stroke-dasharray:7.0,7.0;"/><polygon fill="#181818" points="910.5,781.77,914.5,772.77,910.5,776.77,906.5,772.77,910.5,781.77" style="stroke:#181818;stroke-width:1.0;"/></g><!--link Cart to CartItemAdded--><g id="link_Cart_CartItemAdded"><path codeLine="123" d="M1045.89,681.12 C1077.17,712.8 1104.3545,740.3304 1129.3245,765.6204 " fill="none" id="Cart-to-CartItemAdded" style="stroke:#181818;stroke-width:1.0;stroke-dasharray:7.0,7.0;"/><polygon fill="#181818" points="1133.54,769.89,1130.0631,760.6753,1130.027,766.332,1124.3703,766.296,1133.54,769.89" style="stroke:#181818;stroke-width:1.0;"/><text fill="#000000" font-family="sans-serif" font-size="13" lengthAdjust="spacing" textLength="36.1436" x="1088.5" y="724.0669">emits</text></g><!--link Cart to CartItemRemoved--><g id="link_Cart_CartItemRemoved"><path codeLine="124" d="M1081.74,639.68 C1145.99,676.12 1219.44,718.41 1285.5,758 C1296.07,764.34 1302.0825,767.9952 1312.9225,774.7252 " fill="none" id="Cart-to-CartItemRemoved" style="stroke:#181818;stroke-width:1.0;stroke-dasharray:7.0,7.0;"/><polygon fill="#181818" points="1318.02,777.89,1312.4836,769.7445,1313.7721,775.2527,1308.2639,776.5412,1318.02,777.89" style="stroke:#181818;stroke-width:1.0;"/><text fill="#000000" font-family="sans-serif" font-size="13" lengthAdjust="spacing" textLength="36.1436" x="1225.5" y="724.0669">emits</text></g><!--link Cart to CartCheckedOut--><g id="link_Cart_CartCheckedOut"><path codeLine="125" d="M1081.66,597.79 C1198.39,636.8 1355.2,693.82 1487.5,758 C1495.02,761.65 1497.4399,762.7755 1505.0499,766.9855 " fill="none" id="Cart-to-CartCheckedOut" style="stroke:#181818;stroke-width:1.0;stroke-dasharray:7.0,7.0;"/><polygon fill="#181818" points="1510.3,769.89,1504.3611,762.0332,1505.9249,767.4696,1500.4885,769.0334,1510.3,769.89" style="stroke:#181818;stroke-width:1.0;"/><text fill="#000000" font-family="sans-serif" font-size="13" lengthAdjust="spacing" textLength="36.1436" x="1412.5" y="724.0669">emits</text></g><!--link Cart to PromotionApplied--><g id="link_Cart_PromotionApplied"><path codeLine="126" d="M1081.52,577.5 C1243.38,612.23 1491.27,673.36 1695.5,758 C1709.14,763.65 1717.9134,767.7755 1731.2334,775.0455 " fill="none" id="Cart-to-PromotionApplied" style="stroke:#181818;stroke-width:1.0;stroke-dasharray:7.0,7.0;"/><polygon fill="#181818" points="1736.5,777.92,1730.5164,770.0972,1732.1112,775.5246,1726.6837,777.1193,1736.5,777.92" style="stroke:#181818;stroke-width:1.0;"/><text fill="#000000" font-family="sans-serif" font-size="13" lengthAdjust="spacing" textLength="36.1436" x="1613.5" y="724.0669">emits</text></g><!--SRC=[hLPDRzim3BtxL-YsP6cAdOqYG9fsG80Dwzfqrq2Lk5QeRNcM720R-jz7oP8isKxNOSibCVb4yUFnEUfPL3LjQ4bOGPLQQzs8XrR3bidgJlm4yY7BCkiY6zfeyYiZ-5aIfHkWvLxmdDpVRw-SbRLAonAQeLreA5LEFWcbBxRuU-Ni70fnWEQuvhm1XOYhrE1WTIDBgOMiV8mRR_21G6bHKWtS1zY94d9olLixW9QQ5kjIjfNEoMTPmR5pBEtNWb3EJMAp4gfsRzB54ix8ZvPMMkZZtA4QAEK1Ha3lRckEEHZtLtVm3_5eNHV7KCmirBcH73o6qOAr1SRTcHBKpDjzoN75mNcWXV2vh0zK5FH152QVUVRYvsbyOPvndideVCev4PLsjhOIUbytWe6P6CCqYhZDawxbP3at1XadDI10mZV0qTqXFwj7JpURLs9I6aCFRBL4Qs5wEZnlwD3q8K8MOIJXVZO-pK6nHjG6Dl1Wzzke_X0MwHW2rhW_k7YmrvQfVNFLawXhZ1KvCC0xSYLBAYfo1yq1UwOoT43pdJ8Wfebum7dS3L6dpU9sZMRuAxUBF4_7Cw9YZpphro_l6pDFokjpYSasJ2WcfKfp-TQvCF0jgBRGQL1FYkkEyeWQXfvSXkG68mMsZsiiL30RfMzcht2HExq4EO3kMq0s2IqDQpR9SvXhF8nyC1m7ekCkvLEj6yZagFxyT6icvMqdJSvl5hcFEEtHWVyaTYuLpwqzYoNl2TZpbrPRnBmRMsYqIBYVpY3muH7iuSlZnhsHjdmMlPpctV0SMD53GfPatwuFKEcO85PIEGTEBYwiSxKArqwz5HUdj7KnqDQNR73BhHt4FzsJnDoOjWB7nhuvvFGBVU5qdYRlqx5wsbtwYmA2qEmJkNNpBoozZJogpFuNaSkbVObrJ-_nQVZt8JX2Iht9249sOkFFprV3nNq5ERMuhy1FhsmsK7A3jZoTKjNWFAsE0MABza-HP65V7RyJH4_nd40ffjoUcvE0Y6WZ_uWS3l4R]--></g></svg>